<?xml version="1.0" encoding="utf-8" ?><!-- created by svgstack.com | Attribution is required. --><svg xmlns="http://www.w3.org/2000/svg" xmlns:xlink="http://www.w3.org/1999/xlink" width="1024" height="1024"><path fill="#515B84" transform="scale(2 2)" d="M246.157 353.724C251.837 353.643 251.217 359.833 247.484 362.195C241.412 361.668 241.349 356.077 246.157 353.724Z"/><path fill="#515B84" transform="scale(2 2)" d="M294.504 353.724C300.58 352.551 300.957 358.388 296.67 360.913C291.421 362.363 289.698 355.672 294.504 353.724Z"/><path fill="#515B84" transform="scale(2 2)" d="M269.942 374.578C275.6 373.905 276.068 380.211 271.735 382.376C266.334 381.914 264.387 376.355 269.942 374.578Z"/><path fill="#515B84" transform="scale(2 2)" d="M281.026 364.291C286.413 363.882 287.231 370.111 282.737 372.166C276.734 372.05 275.751 366.714 281.026 364.291Z"/><path fill="#515B84" transform="scale(2 2)" d="M260.136 364.291C265.797 363.861 266.486 369.884 262.098 372.166C256.176 372.745 255.485 366.676 260.136 364.291Z"/><path fill="#515B84" transform="scale(2 2)" d="M312.359 196.237C318.653 196.579 317.063 207.324 317.064 211.451L317.05 229.277L314.638 227.691C312.466 226.368 310.219 225.002 307.833 224.107C307.834 221.157 307.357 200.811 308.024 199.201C308.785 197.362 310.655 196.875 312.359 196.237Z"/><path fill="#699EE4" transform="scale(2 2)" d="M387.633 351.338C402.782 350.595 403.22 374.105 388.472 374.578C372.785 375.352 371.051 353.811 387.633 351.338Z"/><path fill="#699EE4" transform="scale(2 2)" d="M293.771 375.731L293.87 375.777C294.765 377.249 293.76 380.582 293.758 382.31L293.771 405.727L275.655 405.727L275.336 405.468C275.774 399.682 275.514 393.925 275.655 388.136C278.476 384.947 289.77 377.589 293.771 375.731Z"/><path fill="#699EE4" transform="scale(2 2)" d="M247.484 374.578C252.268 377.05 261.54 384.475 265.744 388.136L265.744 405.727L247.484 405.727C247.493 395.347 247.356 384.956 247.484 374.578Z"/><path fill="#515B84" transform="scale(2 2)" d="M334.96 200.505C338.951 200.293 342.956 200.446 346.95 200.479L375.83 200.506C378.175 200.511 380.693 200.343 383.012 200.719C387.944 201.519 386.941 207.802 383.53 209.852L350.572 209.851C345.099 209.853 339.583 210.038 334.115 209.852C330.398 206.642 330.289 202.515 334.96 200.505Z"/><path fill="#515B84" transform="scale(2 2)" d="M174.641 169.026L208.31 169.019C213.941 169.018 219.717 168.745 225.33 169.071C233.38 169.538 230.366 179.396 230.369 186.067L230.369 213.336C230.367 217.843 230.17 222.405 230.374 226.903C229.058 227.814 227.609 228.524 226.199 229.277C224.725 231.067 222.895 232.629 221.177 234.178L221.177 178.233L174.641 178.233L174.641 169.026Z"/><path fill="#699EE4" transform="scale(2 2)" d="M275.655 415.751L287.39 415.731C298.742 415.709 310.523 418.388 312.124 431.935C312.587 435.851 313.676 442.177 311.011 445.486C307.687 447.668 301.775 446.55 297.976 446.55L275.655 446.532L275.655 415.751Z"/><path fill="#699EE4" transform="scale(2 2)" d="M246.157 415.751C252.592 415.361 259.277 415.756 265.744 415.751C265.854 426.007 265.751 436.275 265.744 446.532L249.134 446.532C242.967 446.516 236.49 447.028 230.374 446.532C225.627 441.509 229.017 427.357 232.604 422.713C236.031 418.278 240.755 416.417 246.157 415.751Z"/><path fill="#515B84" transform="scale(2 2)" d="M397.551 219.849C410.598 218.976 418.863 234.024 412.87 245.321C405.49 259.232 385.468 255.404 381.521 241.127C374.638 240.938 367.701 241.116 360.813 241.127L344.179 241.149C341.138 241.169 333.877 242.274 331.32 240.229C329.284 238.601 329.276 235.202 331.127 233.446C334.485 230.261 345.421 231.768 349.75 231.767L381.521 231.759C384.788 224.693 389.619 221.02 397.551 219.849Z"/><path fill="#EC9189" transform="scale(2 2)" d="M397.551 229.277C406.823 228.648 409.704 241.29 399.123 245.15C388.268 245.726 386.649 230.698 397.551 229.277Z"/><path fill="#F9B88B" transform="scale(2 2)" d="M337.711 352.35C351.653 351.166 342.274 358.483 349.087 362.195C351.232 361.791 353.151 360.689 355.287 360.362C358.189 360.991 361.394 368.588 360.683 370.888C359.958 373.237 356.51 372.755 356.096 375.878C355.359 381.425 358.874 379.106 360.537 381.712C362.166 384.266 358.195 391.616 355.978 392.497C354.481 393.092 351.756 391.037 350.329 390.326C341.865 393.497 351.551 400.458 339.813 400.063C329.876 399.842 334.94 397.523 333.456 393.39C330.011 383.801 323.952 403.433 317.05 382.376C329.905 372.192 316.184 375.076 317.71 368.953C318.572 365.493 321.268 361.546 324.288 359.712C325.906 360.66 327.454 361.561 329.224 362.195C337.686 360.137 328.901 353.531 337.711 352.35Z"/><path fill="#515B84" transform="scale(2 2)" d="M353.532 260.077C355.915 260.279 356.884 261.052 358.245 263.09L358.245 285.729C364.544 292.118 375.545 300.502 383.53 304.465C398.184 284.386 425.048 306.617 411.309 324.975C400.09 337.603 381.819 329.965 380.602 314.128C369.385 307.515 358.074 299.745 349.087 290.243C348.897 285.286 349.082 280.251 349.067 275.287C349.05 269.586 346.777 261.232 353.532 260.077Z"/><path fill="#EC9189" transform="scale(2 2)" d="M396.724 306.276C407.098 305.761 409.278 320.243 399.123 321.265C389.649 324.359 386.303 309.131 396.724 306.276Z"/><path fill="#515B84" transform="scale(2 2)" d="M152.432 100.082C165.061 98.3238 171.045 109.27 170.587 120.555C177.089 126.392 183.922 131.976 190.763 137.413C200.845 137.879 218.566 136.044 227.422 137.623C232.603 138.547 231.513 144.105 228.512 146.775C222.899 146.948 217.242 146.793 211.625 146.775C203.559 146.771 195.403 147.059 187.346 146.775C180.095 140.912 173.231 134.486 165.824 128.829C159.093 134.6 150.035 136.433 142.754 130.226C131.045 120.243 137.03 101.055 152.432 100.082Z"/><path fill="#EC9189" transform="scale(2 2)" d="M152.432 109.034C162.221 108.003 165.478 121.118 155.048 124.791C145.226 126.187 141.724 112.579 152.432 109.034Z"/><path fill="#515B84" transform="scale(2 2)" d="M172.218 220.865C201.119 220.256 205.216 260.888 176.311 265.209C147.742 268.138 141.912 224.527 172.218 220.865ZM172.218 230.312C154.387 234.884 159.642 258.811 176.311 255.258C190.446 255.429 190.429 228.772 172.218 230.312Z"/><path fill="#515B84" transform="scale(2 2)" d="M281.026 63.8446C298.998 61.991 310.336 86.1282 287.982 97.5055L287.981 202.625C287.985 207.208 288.179 211.864 287.922 216.438L287.639 216.641L286.425 216.43C283.931 215.671 281.322 215.262 278.748 214.886L278.748 97.5055C261.14 89.2516 261.886 67.5041 281.026 63.8446Z"/><path fill="#EC9189" transform="scale(2 2)" d="M281.934 72.7695C292.754 72.0876 294.142 85.5243 284.58 88.5406C275.175 90.5168 270.888 76.4006 281.934 72.7695Z"/><path fill="#515B84" transform="scale(2 2)" d="M210.407 69.6036C223.699 68.3421 231.634 80.5842 228.512 92.6139C235.069 102.987 252.907 114.117 259.248 124.046L259.248 216.43C255.912 216.441 253.309 217.022 250.151 217.985L250.151 209.852L250.161 137.378C250.179 134.133 250.354 130.856 250.151 127.618C240.776 118.776 231.189 109.598 222.525 100.082C197.278 117.38 182.556 72.5504 210.407 69.6036Z"/><path fill="#EC9189" transform="scale(2 2)" d="M211.625 78.7787C220.385 77.8348 224.172 92.1137 213.205 94.6357C203.29 94.9951 200.233 82.6095 211.625 78.7787Z"/><path fill="#8ECBD5" transform="scale(2 2)" d="M130.789 146.775C146.275 149.063 140.566 144.933 143.078 156.186C143.936 160.027 151.718 156.217 153.796 155.569C158.209 158.968 161.662 164.786 162.078 170.366C160.129 172.112 154.484 174.051 154.921 177.442C155.433 181.418 170.079 182.153 155.298 196.235C150.639 200.673 147.74 193.316 142.989 198.387L142.759 198.638C142.771 201.173 142.875 203.543 142.112 205.989C140.574 206.563 139.056 206.665 137.438 206.739C127.152 207.938 126.816 207.94 125.541 200.54C124.349 193.617 119.477 197.064 115.108 198.638C111.271 196.026 105.622 188.799 106.236 184.273C106.723 180.69 112.255 180.847 112.325 177.062C112.411 172.49 105.92 172.179 106.544 167.853C107.172 163.5 111.635 158.047 115.108 155.569C117.44 156.309 120.801 158.573 123.32 157.945C127.451 156.915 122.137 149.232 130.789 146.775Z"/><path fill="#515B84" transform="scale(2 2)" d="M119.676 218.96C122.41 219.913 125.742 220.744 128.082 222.468C123.676 239.555 121.904 246.16 129.464 264.197L113.887 294.899C111.113 300.265 107.41 306.128 105.416 311.794C111.907 312.445 124.344 309.336 128.082 314.128C128.309 317.312 128.1 320.638 128.094 323.838L128.069 342.787C128.066 355.538 127.776 366.605 138.913 375.04C152.867 385.606 168.179 376.717 180.672 381.877C195.899 388.168 192.487 405.442 192.504 418.625C192.511 424.794 193.818 440.355 191.622 445.486C182.917 452.919 183.245 437.966 183.259 433.794L183.301 410.907C183.327 388.359 181.59 389.666 161.834 389.71C129.002 389.785 118.996 373.987 118.992 343.159L119.001 321.265C113.803 321.264 106.179 322.255 101.589 319.741C90.8087 313.837 100.002 301.172 103.657 293.95C108.694 283.994 113.771 274.053 119.001 264.197C113.905 248.913 112.99 234.279 119.676 218.96Z"/><path fill="#515B84" transform="scale(2 2)" d="M353.532 69.6036C362.447 68.0684 370.809 74.2582 372.407 83.2002C375.109 98.3206 358.009 109.354 345.458 100.082C338.059 109.168 325.565 118.586 317.05 127.618C316.831 141.415 317.297 155.231 317.05 169.026L345.193 169.03C349.986 169.033 354.808 169.183 359.598 169.026C364.707 164.297 379.31 152.596 381.519 147.58C387.906 133.078 404.528 133.161 412.824 146.027C418.161 156.878 410.45 170.374 398.049 170.769C389.268 171.048 387.22 166.752 381.521 161.47C376.015 166.959 367.179 178.177 359.526 178.239L326.556 178.245C304.595 178.227 307.815 180.784 307.816 156.672L307.833 124.046C309.834 120.487 313.569 118.049 316.498 115.287L331.299 101.475C333.893 99.0592 336.702 95.6397 339.813 93.9654C336.541 83.0256 339.962 68.9307 353.532 69.6036Z"/><path fill="#EC9189" transform="scale(2 2)" d="M396.724 146.027C405.617 144.755 409.316 158.018 399.123 161.47C388.527 162.535 385.401 147.915 396.724 146.027Z"/><path fill="#EC9189" transform="scale(2 2)" d="M353.532 78.7787C363.809 76.2511 367.734 90.6307 357.378 93.9654C345.447 94.9219 344.187 80.9108 353.532 78.7787Z"/><path fill="#515B84" transform="scale(2 2)" d="M260.136 229.277C263.687 229.269 281.144 228.562 283.31 230.265C286.592 235.771 279.956 246.341 290.058 248.448C297.289 249.955 301.268 241.654 306.055 241.115C308.094 241.644 319.845 253.216 321.752 255.258C319.462 261.645 313.142 266.274 316.885 273.634C321.147 282.013 333.791 275.578 335.532 280.24C336.275 282.233 336.564 300.247 335.869 301.656C333.537 306.383 321.834 299.296 317.118 309.48C312.567 319.307 326.076 324.816 323.366 328.51C321.784 330.667 308.478 343.859 306.414 344.445C302.112 345.665 295.424 332.879 287.212 340.484C282.144 345.177 285.992 351.245 282.737 355.94C279.305 358.466 265.05 357.489 260.136 357.422C254.509 351.655 260.852 340.611 250.151 337.668C244.274 336.051 239.66 342.195 234.96 344.611C229.653 341.314 220.977 332.37 218.579 326.721C231.141 309.69 229.732 305.602 209.634 303.346C208.193 298.25 207.058 282.861 209.991 279.13C212.782 275.581 225.951 281.546 227.345 270.132C228.059 264.285 222.348 260.746 221.177 255.258C222.415 251.959 234.054 242.56 236.879 241.299C239.165 240.277 246.515 246.918 249.134 247.965C263.755 246.089 254.013 232.579 260.136 229.277ZM268.286 255.258C232.678 259.836 219.266 302.319 246.72 323.148C254.534 329.077 264.151 331.421 273.814 331.248C328.746 323.339 315.604 251.8 268.286 255.258Z"/><path fill="#699EE4" transform="scale(2 2)" d="M267.343 265.209C304.476 259.177 313.082 316.766 274.83 321.265C267.157 322.665 258.867 320.992 252.724 316.041C232.558 299.791 242.02 267.586 267.343 265.209ZM269.942 286.603C263.93 287.031 254.596 289.518 250.514 294.258C247.842 297.362 249.343 302.733 254.068 301.94C260.637 300.836 260.83 295.572 274.83 296.148C282.418 296.701 289.278 304.845 293.401 301.113C302.488 292.889 277.297 286.195 270.577 286.564L269.942 286.603ZM269.942 297.296C261.85 300.269 264.914 311.186 273.814 309.672C277.562 307.831 278.358 304.474 277.637 300.654C275.523 297.842 273.312 297.06 269.942 297.296Z"/></svg> 