<?xml version="1.0" encoding="UTF-8"?>
<svg xmlns="http://www.w3.org/2000/svg" xmlns:xlink="http://www.w3.org/1999/xlink" width="4000" height="2500" viewBox="0 0 4000 2500">
<defs>
<linearGradient id="linear-pattern-0" gradientUnits="userSpaceOnUse" x1="0.000000000000000111" y1="0" x2="1" y2="0" gradientTransform="matrix(3250, -3250, 3250, 3250, 375, 2875)">
<stop offset="0" stop-color="rgb(85.496521%, 85.667419%, 85.554504%)" stop-opacity="1"/>
<stop offset="0.015625" stop-color="rgb(85.68573%, 85.719299%, 85.559082%)" stop-opacity="1"/>
<stop offset="0.03125" stop-color="rgb(86.068726%, 86.003113%, 85.809326%)" stop-opacity="1"/>
<stop offset="0.0625" stop-color="rgb(86.457825%, 86.468506%, 86.303711%)" stop-opacity="1"/>
<stop offset="0.078125" stop-color="rgb(86.839294%, 86.764526%, 86.57074%)" stop-opacity="1"/>
<stop offset="0.09375" stop-color="rgb(87.049866%, 87.002563%, 86.820984%)" stop-opacity="1"/>
<stop offset="0.109375" stop-color="rgb(87.243652%, 87.242126%, 87.078857%)" stop-opacity="1"/>
<stop offset="0.125" stop-color="rgb(87.442017%, 87.478638%, 87.330627%)" stop-opacity="1"/>
<stop offset="0.140625" stop-color="rgb(87.637329%, 87.718201%, 87.588501%)" stop-opacity="1"/>
<stop offset="0.15625" stop-color="rgb(87.998962%, 88.002014%, 87.846375%)" stop-opacity="1"/>
<stop offset="0.171875" stop-color="rgb(88.232422%, 88.40332%, 88.171387%)" stop-opacity="1"/>
<stop offset="0.1875" stop-color="rgb(88.42926%, 88.674927%, 88.439941%)" stop-opacity="1"/>
<stop offset="0.203125" stop-color="rgb(88.62915%, 88.91449%, 88.699341%)" stop-opacity="1"/>
<stop offset="0.21875" stop-color="rgb(88.825989%, 89.157104%, 88.957214%)" stop-opacity="1"/>
<stop offset="0.234375" stop-color="rgb(89.167786%, 89.299011%, 89.163208%)" stop-opacity="1"/>
<stop offset="0.25" stop-color="rgb(89.407349%, 89.506531%, 89.268494%)" stop-opacity="1"/>
<stop offset="0.265625" stop-color="rgb(89.604187%, 89.749146%, 89.486694%)" stop-opacity="1"/>
<stop offset="0.28125" stop-color="rgb(89.944458%, 90.031433%, 89.753723%)" stop-opacity="1"/>
<stop offset="0.296875" stop-color="rgb(90.197754%, 90.292358%, 90.0177%)" stop-opacity="1"/>
<stop offset="0.3125" stop-color="rgb(90.394592%, 90.534973%, 90.281677%)" stop-opacity="1"/>
<stop offset="0.328125" stop-color="rgb(90.596008%, 90.782166%, 90.545654%)" stop-opacity="1"/>
<stop offset="0.34375" stop-color="rgb(90.792847%, 91.02478%, 90.811157%)" stop-opacity="1"/>
<stop offset="0.359375" stop-color="rgb(91.120911%, 91.31012%, 91.079712%)" stop-opacity="1"/>
<stop offset="0.375" stop-color="rgb(91.389465%, 91.575623%, 91.349792%)" stop-opacity="1"/>
<stop offset="0.390625" stop-color="rgb(91.58783%, 91.824341%, 91.616821%)" stop-opacity="1"/>
<stop offset="0.40625" stop-color="rgb(91.899109%, 91.992188%, 91.841125%)" stop-opacity="1"/>
<stop offset="0.421875" stop-color="rgb(92.173767%, 92.189026%, 92.079163%)" stop-opacity="1"/>
<stop offset="0.4375" stop-color="rgb(92.372131%, 92.43927%, 92.350769%)" stop-opacity="1"/>
<stop offset="0.453125" stop-color="rgb(92.575073%, 92.686462%, 92.617798%)" stop-opacity="1"/>
<stop offset="0.46875" stop-color="rgb(92.774963%, 92.938232%, 92.892456%)" stop-opacity="1"/>
<stop offset="0.484375" stop-color="rgb(92.979431%, 93.186951%, 93.161011%)" stop-opacity="1"/>
<stop offset="0.5" stop-color="rgb(93.177795%, 93.438721%, 93.435669%)" stop-opacity="1"/>
<stop offset="0.515625" stop-color="rgb(93.476868%, 93.717957%, 93.710327%)" stop-opacity="1"/>
<stop offset="0.53125" stop-color="rgb(93.870544%, 94.029236%, 93.995667%)" stop-opacity="1"/>
<stop offset="0.546875" stop-color="rgb(94.17572%, 94.311523%, 94.271851%)" stop-opacity="1"/>
<stop offset="0.5625" stop-color="rgb(94.37561%, 94.566345%, 94.551086%)" stop-opacity="1"/>
<stop offset="0.578125" stop-color="rgb(94.664001%, 94.844055%, 94.828796%)" stop-opacity="1"/>
<stop offset="0.59375" stop-color="rgb(94.978333%, 95.133972%, 95.114136%)" stop-opacity="1"/>
<stop offset="0.609375" stop-color="rgb(95.179749%, 95.385742%, 95.388794%)" stop-opacity="1"/>
<stop offset="0.625" stop-color="rgb(95.46051%, 95.66803%, 95.675659%)" stop-opacity="1"/>
<stop offset="0.640625" stop-color="rgb(95.779419%, 95.887756%, 95.927429%)" stop-opacity="1"/>
<stop offset="0.65625" stop-color="rgb(95.973206%, 96.02356%, 96.156311%)" stop-opacity="1"/>
<stop offset="0.6875" stop-color="rgb(96.246338%, 96.362305%, 96.463013%)" stop-opacity="1"/>
<stop offset="0.71875" stop-color="rgb(96.646118%, 96.809387%, 96.868896%)" stop-opacity="1"/>
<stop offset="0.734375" stop-color="rgb(96.986389%, 97.111511%, 97.291565%)" stop-opacity="1"/>
<stop offset="0.75" stop-color="rgb(97.189331%, 97.369385%, 97.525024%)" stop-opacity="1"/>
<stop offset="0.765625" stop-color="rgb(97.396851%, 97.621155%, 97.666931%)" stop-opacity="1"/>
<stop offset="0.78125" stop-color="rgb(97.599792%, 97.88208%, 97.955322%)" stop-opacity="1"/>
<stop offset="0.8125" stop-color="rgb(97.845459%, 98.150635%, 98.236084%)" stop-opacity="1"/>
<stop offset="0.84375" stop-color="rgb(98.23761%, 98.472595%, 98.536682%)" stop-opacity="1"/>
<stop offset="0.859375" stop-color="rgb(98.603821%, 98.780823%, 98.826599%)" stop-opacity="1"/>
<stop offset="0.875" stop-color="rgb(98.808289%, 99.0448%, 99.119568%)" stop-opacity="1"/>
<stop offset="0.90625" stop-color="rgb(99.03717%, 99.308777%, 99.403381%)" stop-opacity="1"/>
<stop offset="0.9375" stop-color="rgb(99.430847%, 99.635315%, 99.708557%)" stop-opacity="1"/>
<stop offset="1" stop-color="rgb(99.816895%, 99.940491%, 99.987793%)" stop-opacity="1"/>
</linearGradient>
</defs>
<path fill-rule="nonzero" fill="url(#linear-pattern-0)" d="M -1250 1250 L 2000 4500 L 5250 1250 L 2000 -2000 Z M -1250 1250 "/>
<path fill-rule="nonzero" fill="rgb(69.728088%, 17.272949%, 25.663757%)" fill-opacity="1" d="M 266.785156 2421.191406 C 209.546875 2351.609375 190.84375 2297.859375 209.605469 2256.878906 C 253.8125 2160.308594 503.488281 2154.371094 767.824219 2148.078125 C 1081.171875 2140.621094 1405.191406 2132.910156 1460.019531 1983.511719 C 1502.050781 1868.988281 1378.578125 1685.230469 1082.539062 1421.71875 C 852.554688 1217.011719 754.390625 1092.539062 782.433594 1041.191406 C 821.324219 969.980469 1084.269531 1043.429688 1388.730469 1128.460938 C 1731.46875 1224.191406 2119.921875 1332.691406 2186.621094 1218.441406 C 2237.78125 1130.800781 2098.898438 924.789062 1762.070312 588.648438 C 1438.691406 265.941406 1310.019531 47.519531 1368.691406 -79.078125 C 1405.789062 -159.128906 1519.140625 -202.800781 1715.21875 -212.578125 C 1887.789062 -221.191406 2100.820312 -203.351562 2306.828125 -186.089844 C 2660.640625 -156.460938 2994.839844 -128.460938 3044.390625 -243.910156 C 3076.660156 -319.078125 2986.269531 -450.039062 2768.058594 -644.269531 L 2770.550781 -647.070312 C 2990.121094 -451.640625 3080.820312 -319.28125 3047.839844 -242.429688 C 2997.21875 -124.5 2661.71875 -152.601562 2306.519531 -182.359375 C 2100.628906 -199.601562 1887.738281 -217.441406 1715.410156 -208.839844 C 1520.851562 -199.128906 1408.550781 -156.171875 1372.089844 -77.5 C 1314.171875 47.5 1442.589844 264.53125 1764.710938 585.988281 C 2102.929688 923.511719 2242 1131.011719 2189.851562 1220.328125 C 2159.289062 1272.699219 2062.429688 1284.578125 1893.75 1256.609375 C 1745.78125 1232.078125 1563.75 1181.238281 1387.71875 1132.070312 C 1097.398438 1050.980469 823.183594 974.390625 785.722656 1042.988281 C 758.644531 1092.578125 856.546875 1215.550781 1085.039062 1418.921875 C 1382.351562 1683.570312 1506.160156 1868.671875 1463.539062 1984.800781 C 1407.828125 2136.589844 1082.511719 2144.339844 767.914062 2151.828125 C 504.78125 2158.089844 256.246094 2164 213.019531 2258.429688 C 194.910156 2297.980469 213.445312 2350.441406 269.679688 2418.808594 L 266.785156 2421.191406 "/>
<path fill-rule="nonzero" fill="rgb(52.636719%, 19.508362%, 61.36322%)" fill-opacity="1" d="M 260.855469 2468.460938 C 205.679688 2400.300781 187.925781 2347.050781 206.570312 2305.671875 C 251.109375 2206.820312 500.902344 2195.921875 765.367188 2184.378906 C 1079.570312 2170.660156 1404.480469 2156.46875 1459.28125 2002.871094 C 1500.671875 1886.878906 1380.941406 1705.589844 1093.261719 1448.621094 C 868.722656 1248.050781 773.257812 1125.101562 801.40625 1072.730469 C 840.65625 999.738281 1101.730469 1068.488281 1404.019531 1148.089844 C 1744.359375 1237.710938 2130.140625 1339.300781 2197.710938 1222.058594 C 2249.269531 1132.628906 2114.808594 928.660156 1786.660156 598.519531 C 1472.550781 282.511719 1348.269531 66.378906 1406.71875 -62.21875 C 1444.089844 -144.421875 1557.519531 -191.171875 1753.5 -205.140625 C 1925.96875 -217.429688 2138.761719 -203.628906 2344.550781 -190.28125 C 2697.839844 -167.359375 3031.550781 -145.71875 3081.21875 -264.230469 C 3113.210938 -340.558594 3025.539062 -469.878906 2813.171875 -659.558594 L 2815.671875 -662.359375 C 3029.378906 -471.480469 3117.371094 -340.769531 3084.679688 -262.78125 C 3033.96875 -141.800781 2698.960938 -163.539062 2344.308594 -186.539062 C 2138.648438 -199.878906 1925.980469 -213.671875 1753.761719 -201.398438 C 1559.28125 -187.539062 1446.878906 -141.511719 1410.140625 -60.660156 C 1352.410156 66.339844 1476.441406 281.101562 1789.320312 595.871094 C 2118.828125 927.390625 2253.480469 1132.828125 2200.960938 1223.941406 C 2170.011719 1277.628906 2073.441406 1291.71875 1905.738281 1267.019531 C 1758.621094 1245.339844 1577.871094 1197.75 1403.058594 1151.71875 C 1114.808594 1075.820312 842.550781 1004.109375 804.710938 1074.511719 C 777.5 1125.121094 872.703125 1246.578125 1095.761719 1445.828125 C 1384.710938 1703.921875 1504.769531 1886.539062 1462.820312 2004.128906 C 1407.160156 2160.109375 1080.980469 2174.351562 765.53125 2188.121094 C 502.253906 2199.609375 253.582031 2210.460938 209.988281 2307.210938 C 191.980469 2347.171875 209.574219 2399.148438 263.773438 2466.101562 L 260.855469 2468.460938 "/>
<path fill-rule="nonzero" fill="rgb(73.54126%, 29.064941%, 12.356567%)" fill-opacity="1" d="M 254.03125 2516.050781 C 200.882812 2449.289062 184.046875 2396.539062 202.566406 2354.789062 C 247.4375 2253.621094 497.476562 2237.710938 762.195312 2220.871094 C 1077.46875 2200.808594 1403.46875 2180.070312 1458.21875 2022.140625 C 1498.910156 1904.75 1382.859375 1725.910156 1103.429688 1475.390625 C 884.265625 1278.910156 791.449219 1157.441406 819.683594 1104.070312 C 859.257812 1029.230469 1118.589844 1093.308594 1418.859375 1167.5 C 1756.988281 1251.039062 2140.261719 1345.738281 2208.730469 1225.421875 C 2260.660156 1134.179688 2130.550781 932.210938 1810.96875 607.960938 C 1506.019531 298.558594 1386.058594 84.699219 1444.238281 -45.859375 C 1481.859375 -130.28125 1595.410156 -180.171875 1791.390625 -198.359375 C 1963.871094 -214.371094 2176.550781 -204.628906 2382.21875 -195.21875 C 2735.171875 -179.058594 3068.578125 -163.800781 3118.351562 -285.46875 C 3150.03125 -362.929688 3065.019531 -490.609375 2858.449219 -675.808594 L 2860.949219 -678.601562 C 3068.851562 -492.210938 3154.179688 -363.148438 3121.820312 -284.050781 C 3071.039062 -159.941406 2736.390625 -175.261719 2382.050781 -191.46875 C 2176.5 -200.871094 1963.960938 -210.609375 1791.738281 -194.621094 C 1597.230469 -176.570312 1484.679688 -127.410156 1447.660156 -44.328125 C 1390.191406 84.648438 1509.898438 297.160156 1813.640625 605.328125 C 2134.570312 930.929688 2264.859375 1134.371094 2211.988281 1227.28125 C 2180.660156 1282.328125 2084.339844 1298.660156 1917.53125 1277.21875 C 1771.199219 1258.410156 1591.621094 1214.039062 1417.960938 1171.140625 C 1131.648438 1100.398438 861.207031 1033.570312 822.996094 1105.820312 C 795.6875 1157.449219 888.234375 1277.429688 1105.941406 1472.601562 C 1386.609375 1724.238281 1503 1904.390625 1461.761719 2023.371094 C 1406.199219 2183.660156 1078.929688 2204.480469 762.4375 2224.609375 C 498.882812 2241.378906 249.945312 2257.21875 205.992188 2356.308594 C 188.097656 2396.671875 204.769531 2448.148438 256.964844 2513.71875 L 254.03125 2516.050781 "/>
<path fill-rule="nonzero" fill="rgb(78.038025%, 17.558289%, 13.844299%)" fill-opacity="1" d="M 246.296875 2563.988281 C 195.148438 2498.609375 179.21875 2446.378906 197.59375 2404.289062 C 242.808594 2300.761719 493.214844 2279.789062 758.324219 2257.609375 C 1074.859375 2231.109375 1402.171875 2203.71875 1456.808594 2041.359375 C 1496.769531 1922.640625 1384.308594 1746.25 1113.019531 1502.089844 C 899.164062 1309.628906 808.960938 1189.628906 837.261719 1135.230469 C 877.167969 1058.519531 1134.871094 1117.921875 1433.28125 1186.699219 C 1769.378906 1264.179688 2150.320312 1351.988281 2219.679688 1228.5 C 2271.949219 1135.441406 2146.121094 935.398438 1835 616.960938 C 1539.089844 314.089844 1423.371094 102.480469 1481.21875 -29.980469 C 1519.089844 -116.691406 1632.808594 -169.761719 1828.898438 -192.21875 C 2001.480469 -212 2214.160156 -206.371094 2419.828125 -200.921875 C 2772.671875 -191.558594 3105.949219 -182.730469 3155.789062 -307.628906 C 3187.121094 -386.179688 3104.71875 -512.230469 2903.851562 -693 L 2906.359375 -695.789062 C 3108.539062 -513.839844 3191.261719 -386.421875 3159.269531 -306.238281 C 3108.46875 -178.921875 2773.921875 -187.78125 2419.738281 -197.171875 C 2214.179688 -202.621094 2001.648438 -208.238281 1829.320312 -188.5 C 1634.691406 -166.199219 1521.941406 -113.851562 1484.660156 -28.480469 C 1427.488281 102.421875 1542.96875 312.691406 1837.679688 614.339844 C 2150.128906 934.128906 2276.148438 1135.628906 2222.941406 1230.339844 C 2191.230469 1286.800781 2095.121094 1305.421875 1929.140625 1287.230469 C 1783.519531 1271.28125 1605.039062 1230.140625 1432.429688 1190.359375 C 1147.898438 1124.769531 879.15625 1062.820312 840.585938 1136.960938 C 813.191406 1189.628906 903.125 1308.148438 1115.53125 1499.308594 C 1388.050781 1744.570312 1500.851562 1922.269531 1460.371094 2042.550781 C 1404.941406 2207.25 1076.378906 2234.75 758.636719 2261.339844 C 494.671875 2283.441406 245.347656 2304.308594 201.03125 2405.789062 C 183.257812 2446.5 199.03125 2497.488281 249.25 2561.679688 L 246.296875 2563.988281 "/>
<path fill-rule="nonzero" fill="rgb(52.005005%, 52.629089%, 50.842285%)" fill-opacity="1" d="M 237.628906 2612.289062 C 188.449219 2548.269531 173.40625 2496.550781 191.632812 2454.160156 C 237.191406 2348.210938 488.101562 2322.148438 753.742188 2294.558594 C 1071.738281 2261.53125 1400.570312 2227.371094 1455.070312 2060.46875 C 1494.238281 1940.519531 1385.320312 1766.578125 1122.070312 1528.71875 C 913.445312 1340.21875 825.808594 1221.660156 854.144531 1166.238281 C 894.367188 1087.578125 1150.578125 1142.320312 1447.238281 1205.699219 C 1781.480469 1277.121094 2160.320312 1358.070312 2230.558594 1231.289062 C 2283.148438 1136.390625 2161.539062 938.238281 1858.78125 625.519531 C 1571.808594 329.109375 1460.25 119.730469 1517.71875 -14.578125 C 1555.820312 -103.628906 1669.769531 -159.949219 1866.058594 -186.738281 C 2038.828125 -210.328125 2251.628906 -208.828125 2457.441406 -207.378906 C 2810.359375 -204.890625 3143.710938 -202.550781 3193.558594 -330.761719 C 3224.519531 -410.351562 3144.671875 -534.789062 2949.449219 -711.179688 L 2951.960938 -713.960938 C 3148.46875 -536.410156 3228.648438 -410.621094 3197.058594 -329.398438 C 3146.261719 -198.789062 2811.671875 -201.148438 2457.410156 -203.628906 C 2251.761719 -205.078125 2039.078125 -206.578125 1866.558594 -183.03125 C 1671.691406 -156.421875 1558.710938 -100.839844 1521.171875 -13.109375 C 1464.359375 119.660156 1575.671875 327.710938 1861.46875 622.910156 C 2165.53125 936.980469 2287.328125 1136.570312 2233.839844 1233.109375 C 2162.238281 1362.289062 1781.96875 1281.050781 1446.460938 1209.371094 C 1163.578125 1148.929688 896.382812 1091.839844 857.484375 1167.941406 C 830.027344 1221.640625 917.398438 1338.738281 1124.578125 1525.941406 C 1389.050781 1764.898438 1498.320312 1940.121094 1458.640625 2061.640625 C 1403.378906 2230.851562 1073.320312 2265.140625 754.128906 2298.289062 C 489.613281 2325.761719 239.765625 2351.710938 195.082031 2455.628906 C 177.433594 2496.667969 192.328125 2547.160156 240.601562 2610 L 237.628906 2612.289062 "/>
<path fill-rule="nonzero" fill="rgb(75.187683%, 35.507202%, 32.420349%)" fill-opacity="1" d="M 228.070312 2660.949219 C 180.824219 2598.289062 166.644531 2547.089844 184.71875 2504.417969 C 230.621094 2396.050781 482.152344 2364.828125 748.453125 2331.769531 C 1068.121094 2292.089844 1398.671875 2251.070312 1452.988281 2079.53125 C 1491.328125 1958.421875 1385.859375 1786.949219 1130.550781 1555.308594 C 927.101562 1370.71875 841.980469 1253.550781 870.332031 1197.109375 C 910.84375 1116.429688 1177.988281 1168.941406 1460.808594 1224.519531 C 1793.351562 1289.871094 2170.261719 1363.949219 2241.378906 1233.808594 C 2294.261719 1137.070312 2176.800781 940.761719 1882.289062 633.660156 C 1604.148438 343.628906 1496.671875 136.480469 1553.710938 0.378906 C 1592.050781 -91.078125 1706.25 -150.699219 1902.859375 -181.878906 C 2075.921875 -209.328125 2288.980469 -212.011719 2495.03125 -214.601562 C 2848.21875 -219.039062 3181.828125 -223.238281 3231.679688 -354.828125 C 3262.210938 -435.429688 3184.871094 -558.25 2995.21875 -730.308594 L 2997.738281 -733.089844 C 3188.660156 -559.871094 3266.328125 -435.710938 3235.191406 -353.511719 C 3184.429688 -219.53125 2849.578125 -215.308594 2495.078125 -210.851562 C 2289.171875 -208.261719 2076.25 -205.578125 1903.449219 -178.179688 C 1708.230469 -147.210938 1594.960938 -88.328125 1557.171875 1.828125 C 1500.769531 136.410156 1608 342.230469 1885 631.058594 C 2180.789062 939.488281 2298.441406 1137.238281 2244.671875 1235.609375 C 2172.230469 1368.148438 1793.890625 1293.800781 1460.089844 1228.199219 C 1178.710938 1172.898438 912.925781 1120.660156 873.683594 1198.789062 C 846.195312 1253.53125 931.039062 1369.230469 1133.070312 1552.53125 C 1389.578125 1785.261719 1495.398438 1958.011719 1456.558594 2080.660156 C 1401.519531 2254.488281 1069.75 2295.671875 748.914062 2335.5 C 483.71875 2368.410156 233.226562 2399.511719 188.167969 2505.878906 C 170.667969 2547.210938 184.695312 2597.199219 231.0625 2658.699219 L 228.070312 2660.949219 "/>
<path fill-rule="nonzero" fill="rgb(76.531982%, 18.421936%, 62.335205%)" fill-opacity="1" d="M 217.59375 2710.050781 C 172.25 2648.71875 158.914062 2598.050781 176.824219 2555.140625 C 223.082031 2444.300781 475.363281 2407.859375 742.460938 2369.269531 C 1064 2322.820312 1396.480469 2274.789062 1450.578125 2098.511719 C 1488.070312 1976.351562 1385.988281 1807.339844 1138.5 1581.839844 C 940.152344 1401.109375 857.511719 1285.320312 885.851562 1227.851562 C 926.648438 1145.109375 1192.488281 1192.738281 1473.929688 1243.160156 C 1804.96875 1302.46875 2180.148438 1369.679688 2252.171875 1236.039062 C 2305.300781 1137.441406 2191.929688 942.921875 1905.570312 641.359375 C 1636.148438 357.628906 1532.671875 152.710938 1589.238281 14.890625 C 1627.789062 -79.050781 1742.308594 -142.03125 1939.339844 -177.660156 C 2112.769531 -209.019531 2326.210938 -215.929688 2532.621094 -222.601562 C 2886.300781 -234.039062 3220.359375 -244.851562 3270.171875 -379.898438 C 3300.238281 -461.449219 3225.351562 -582.648438 3041.210938 -750.441406 L 3043.738281 -753.210938 C 3229.128906 -584.28125 3304.351562 -461.75 3273.679688 -378.601562 C 3223 -241.179688 2887.71875 -230.328125 2532.738281 -218.851562 C 2326.46875 -212.179688 2113.171875 -205.28125 1940 -173.96875 C 1744.328125 -138.578125 1630.730469 -76.339844 1592.699219 16.308594 C 1536.761719 152.621094 1639.988281 356.230469 1908.289062 638.769531 C 2195.910156 941.660156 2309.46875 1137.609375 2255.46875 1237.808594 C 2182.160156 1373.839844 1805.550781 1306.371094 1473.269531 1246.851562 C 1193.25 1196.691406 928.75 1149.308594 889.214844 1229.5 C 861.714844 1285.269531 944.085938 1399.609375 1141.03125 1579.058594 C 1389.691406 1805.648438 1492.121094 1975.921875 1454.171875 2099.601562 C 1399.371094 2278.171875 1065.691406 2326.371094 742.996094 2372.980469 C 476.980469 2411.410156 225.722656 2447.710938 180.285156 2556.582031 C 162.925781 2598.167969 176.117188 2647.640625 220.609375 2707.828125 L 217.59375 2710.050781 "/>
<path fill-rule="nonzero" fill="rgb(70.950317%, 17.988586%, 51.683044%)" fill-opacity="1" d="M 206.183594 2759.558594 C 162.707031 2699.53125 150.195312 2649.390625 167.9375 2606.269531 C 214.566406 2492.929688 467.730469 2451.210938 735.761719 2407.03125 C 1059.371094 2353.699219 1393.988281 2298.539062 1447.828125 2117.421875 C 1484.421875 1994.308594 1385.648438 1827.78125 1145.871094 1608.328125 C 952.574219 1431.410156 872.367188 1316.96875 900.667969 1258.480469 C 941.726562 1173.609375 1206.429688 1216.359375 1486.679688 1261.621094 C 1666.640625 1290.671875 1859.738281 1321.851562 2009.839844 1321.859375 C 2134.71875 1321.871094 2229.820312 1300.289062 2262.921875 1237.960938 C 2316.269531 1137.519531 2206.910156 944.769531 1928.609375 648.671875 C 1667.789062 371.160156 1568.238281 168.460938 1624.28125 28.988281 C 1663.050781 -67.488281 1777.929688 -133.898438 1975.5 -174.039062 C 2149.410156 -209.378906 2363.351562 -220.558594 2570.25 -231.371094 C 2924.609375 -249.890625 3259.320312 -267.371094 3309.039062 -405.960938 C 3338.628906 -488.410156 3266.140625 -608 3087.460938 -771.550781 L 3089.988281 -774.308594 C 3269.921875 -609.628906 3342.71875 -488.730469 3312.570312 -404.691406 C 3262.011719 -263.761719 2926.089844 -246.210938 2570.449219 -227.628906 C 2363.691406 -216.820312 2149.890625 -205.648438 1976.25 -170.371094 C 1780.011719 -130.5 1666.03125 -64.828125 1627.761719 30.390625 C 1572.320312 168.371094 1671.621094 369.769531 1931.351562 646.109375 C 2210.878906 943.519531 2320.429688 1137.691406 2266.238281 1239.71875 C 2192.089844 1379.328125 1817 1318.75 1486.078125 1265.320312 C 1207.25 1220.300781 943.882812 1177.761719 904.042969 1260.109375 C 876.558594 1316.910156 956.492188 1429.910156 1148.410156 1605.558594 C 1389.351562 1826.078125 1488.46875 1993.859375 1451.429688 2118.488281 C 1396.921875 2301.859375 1061.121094 2357.210938 736.371094 2410.730469 C 469.402344 2454.730469 217.234375 2496.289062 171.40625 2607.699219 C 154.199219 2649.519531 166.570312 2698.46875 209.21875 2757.359375 L 206.183594 2759.558594 "/>
<path fill-rule="nonzero" fill="rgb(51.759338%, 28.361511%, 66.27655%)" fill-opacity="1" d="M 193.839844 2809.5 C 152.203125 2750.769531 140.5 2701.171875 158.070312 2657.878906 C 205.074219 2542.03125 459.238281 2494.949219 728.324219 2445.109375 C 1054.21875 2384.75 1391.199219 2322.328125 1444.738281 2136.261719 C 1480.410156 2012.308594 1384.890625 1848.269531 1152.710938 1634.78125 C 964.394531 1461.609375 886.578125 1348.511719 914.8125 1289 C 956.117188 1201.960938 1219.808594 1239.820312 1498.988281 1279.898438 C 1827.519531 1327.078125 2199.878906 1380.53125 2273.640625 1239.578125 C 2327.171875 1137.289062 2221.78125 946.25 1951.441406 655.53125 C 1699.089844 384.171875 1603.390625 183.699219 1658.859375 42.660156 C 1697.839844 -56.421875 1813.128906 -126.320312 2011.339844 -171.039062 C 2185.820312 -210.421875 2400.398438 -225.929688 2607.898438 -240.921875 C 2963.148438 -266.589844 3298.699219 -290.839844 3348.308594 -433.039062 C 3377.359375 -516.328125 3307.230469 -634.289062 3133.910156 -793.671875 L 3136.449219 -796.429688 C 3310.988281 -635.929688 3381.449219 -516.660156 3351.851562 -431.800781 C 3301.429688 -287.28125 2964.679688 -262.941406 2608.171875 -237.179688 C 2400.800781 -222.191406 2186.371094 -206.699219 2012.160156 -167.390625 C 1815.261719 -122.960938 1700.839844 -53.800781 1662.359375 44.03125 C 1607.460938 183.589844 1702.921875 382.78125 1954.179688 652.980469 C 2225.738281 945.011719 2331.320312 1137.449219 2276.960938 1241.320312 C 2201.96875 1384.621094 1828.210938 1330.960938 1498.449219 1283.609375 C 1220.691406 1243.730469 958.316406 1206.070312 918.203125 1290.609375 C 890.765625 1348.441406 968.300781 1460.109375 1155.25 1632.011719 C 1388.570312 1846.570312 1484.449219 2011.851562 1448.351562 2137.300781 C 1394.171875 2325.601562 1056.019531 2388.230469 729.007812 2448.800781 C 460.960938 2498.441406 207.777344 2545.339844 161.542969 2659.289062 C 144.496094 2701.300781 156.0625 2749.730469 196.902344 2807.328125 L 193.839844 2809.5 "/>
<path fill-rule="nonzero" fill="rgb(77.061462%, 39.379883%, 54.756165%)" fill-opacity="1" d="M 180.558594 2859.898438 C 140.714844 2802.441406 129.800781 2753.390625 147.191406 2709.960938 C 194.59375 2591.570312 449.886719 2539.070312 720.167969 2483.488281 C 1048.550781 2415.960938 1388.121094 2346.128906 1441.328125 2155.039062 C 1476.039062 2030.351562 1383.691406 1868.820312 1159 1661.210938 C 975.613281 1491.761719 900.148438 1379.96875 928.289062 1319.460938 C 969.828125 1230.171875 1232.648438 1263.128906 1510.910156 1298.03125 C 1838.449219 1339.109375 2209.691406 1385.671875 2284.328125 1240.890625 C 2338.011719 1136.769531 2236.511719 947.410156 1974.03125 662 C 1730.050781 396.710938 1638.128906 198.46875 1693 55.949219 C 1732.171875 -45.789062 1847.929688 -119.25 2046.878906 -168.628906 C 2222.039062 -212.101562 2437.359375 -231.988281 2645.609375 -251.230469 C 3001.949219 -284.160156 3338.53125 -315.25 3387.988281 -461.121094 C 3416.488281 -545.191406 3348.671875 -661.519531 3180.640625 -816.769531 L 3183.191406 -819.53125 C 3352.410156 -663.160156 3420.570312 -545.53125 3391.539062 -459.921875 C 3341.300781 -311.738281 3003.539062 -280.539062 2645.949219 -247.5 C 2437.851562 -228.269531 2222.660156 -208.390625 2047.789062 -164.988281 C 1850.109375 -115.929688 1735.199219 -43.21875 1696.5 57.300781 C 1642.191406 198.351562 1733.871094 395.320312 1976.789062 659.460938 C 2240.460938 946.171875 2342.148438 1136.921875 2287.671875 1242.601562 C 2211.820312 1389.710938 1839.199219 1342.980469 1510.441406 1301.75 C 1233.578125 1267.03125 972.066406 1234.230469 931.691406 1321.039062 C 904.324219 1379.878906 979.511719 1490.25 1161.550781 1658.449219 C 1387.371094 1867.109375 1480.070312 2029.871094 1444.941406 2156.039062 C 1391.121094 2349.351562 1050.410156 2419.410156 720.921875 2487.160156 C 451.65625 2542.53125 197.328125 2594.832031 150.675781 2711.351562 C 133.785156 2753.53125 144.570312 2801.421875 183.640625 2857.761719 L 180.558594 2859.898438 "/>
<path fill-rule="nonzero" fill="rgb(78.507996%, 20.211792%, 13.519287%)" fill-opacity="1" d="M 166.339844 2910.789062 C 128.257812 2854.578125 118.113281 2806.089844 135.328125 2762.550781 C 183.152344 2641.589844 439.699219 2583.589844 711.304688 2522.199219 C 1042.390625 2447.359375 1384.738281 2369.96875 1437.570312 2173.769531 C 1471.308594 2048.46875 1382.078125 1889.449219 1164.761719 1687.640625 C 986.234375 1521.859375 913.074219 1411.371094 941.097656 1349.871094 C 982.832031 1258.269531 1244.921875 1286.308594 1522.410156 1316.011719 C 1849.148438 1350.96875 2219.480469 1390.609375 2295 1241.871094 C 2348.789062 1135.921875 2251.121094 948.210938 1996.410156 668.019531 C 1760.679688 408.71875 1672.449219 212.730469 1726.679688 68.839844 C 1766.058594 -35.628906 1882.328125 -112.71875 2082.148438 -166.828125 C 2258.058594 -214.460938 2474.269531 -238.808594 2683.371094 -262.351562 C 3041.011719 -302.621094 3378.820312 -340.648438 3428.101562 -490.269531 C 3456.019531 -575.03125 3390.449219 -689.730469 3227.648438 -840.921875 L 3230.199219 -843.671875 C 3394.179688 -691.378906 3460.078125 -575.398438 3431.660156 -489.089844 C 3381.628906 -337.199219 3042.660156 -299.03125 2683.789062 -258.621094 C 2474.828125 -235.089844 2258.761719 -210.769531 2083.128906 -163.210938 C 1884.558594 -109.441406 1769.109375 -33.101562 1730.199219 70.160156 C 1676.511719 212.609375 1764.488281 407.339844 1999.179688 665.5 C 2255.070312 946.96875 2352.921875 1136.058594 2298.339844 1243.570312 C 2221.671875 1394.609375 1849.960938 1354.839844 1522.011719 1319.738281 C 1245.910156 1290.191406 985.121094 1262.289062 944.507812 1351.429688 C 917.242188 1411.269531 990.121094 1520.351562 1167.308594 1684.898438 C 1385.738281 1887.738281 1475.328125 2047.96875 1441.191406 2174.75 C 1417.269531 2263.589844 1331.210938 2336.398438 1178.109375 2397.339844 C 1043.289062 2451 874.941406 2489.050781 712.132812 2525.851562 C 441.519531 2587.03125 185.914062 2644.808594 138.816406 2763.929688 C 122.09375 2806.230469 132.109375 2853.578125 169.441406 2908.691406 L 166.339844 2910.789062 "/>
<path fill-rule="nonzero" fill="rgb(91.375732%, 49.357605%, 70.10498%)" fill-opacity="1" d="M 151.179688 2962.179688 C 114.820312 2907.199219 105.433594 2859.269531 122.472656 2815.648438 C 170.738281 2692.101562 428.667969 2628.539062 701.734375 2561.238281 C 1035.710938 2478.929688 1381.058594 2393.820312 1433.480469 2192.449219 C 1466.230469 2066.660156 1380.03125 1910.199219 1169.96875 1714.109375 C 996.25 1551.929688 925.351562 1442.71875 953.226562 1380.238281 C 995.160156 1286.25 1256.679688 1309.371094 1533.539062 1333.839844 C 1859.671875 1362.660156 2229.300781 1395.320312 2305.679688 1242.519531 C 2359.550781 1134.761719 2265.648438 948.679688 2018.601562 673.648438 C 1791.011719 420.269531 1706.398438 226.539062 1759.960938 81.359375 C 1799.53125 -25.898438 1916.371094 -106.679688 2117.148438 -165.601562 C 2293.929688 -217.46875 2511.148438 -246.328125 2721.230469 -274.25 C 3080.378906 -321.980469 3419.601562 -367.050781 3468.660156 -520.46875 C 3495.960938 -605.871094 3432.601562 -718.921875 3274.960938 -866.089844 L 3277.519531 -868.828125 C 3436.328125 -720.570312 3500.019531 -606.25 3472.230469 -519.320312 C 3422.449219 -363.648438 3082.078125 -318.421875 2721.71875 -270.53125 C 2511.789062 -242.628906 2294.710938 -213.789062 2118.210938 -162 C 1918.640625 -103.441406 1802.601562 -23.410156 1763.46875 82.660156 C 1710.449219 226.410156 1794.808594 418.898438 2021.398438 671.148438 C 2269.578125 947.449219 2363.679688 1134.898438 2309.039062 1244.199219 C 2231.511719 1399.289062 1860.53125 1366.488281 1533.21875 1337.570312 C 1257.71875 1313.21875 997.492188 1290.21875 956.648438 1381.769531 C 929.507812 1442.609375 1000.121094 1550.421875 1172.53125 1711.371094 C 1383.691406 1908.480469 1470.238281 2066.148438 1437.109375 2193.390625 C 1413.378906 2284.539062 1326.828125 2360.421875 1172.519531 2425.371094 C 1036.628906 2482.558594 866.835938 2524.410156 702.632812 2564.878906 C 430.535156 2631.941406 173.523438 2695.28125 125.964844 2817.019531 C 109.398438 2859.410156 118.671875 2906.21875 154.308594 2960.109375 L 151.179688 2962.179688 "/>
<path fill-rule="nonzero" fill="rgb(63.018799%, 57.875061%, 12.390137%)" fill-opacity="1" d="M 135.066406 3014.101562 C 100.390625 2960.328125 91.734375 2912.960938 108.601562 2869.308594 C 157.335938 2743.160156 416.75 2673.949219 691.394531 2600.671875 C 1028.488281 2510.730469 1377.058594 2417.71875 1429.050781 2211.089844 C 1460.789062 2084.929688 1377.570312 1931.019531 1174.640625 1740.550781 C 1005.679688 1581.949219 937.003906 1474.011719 964.695312 1410.578125 C 1006.789062 1314.148438 1267.859375 1332.300781 1544.261719 1351.519531 C 1869.941406 1374.171875 2239.078125 1399.839844 2316.339844 1242.839844 C 2370.25 1133.28125 2280.050781 948.800781 2040.578125 678.859375 C 1820.988281 431.320312 1739.941406 239.859375 1792.789062 93.519531 C 1832.550781 -16.589844 1950.011719 -101.128906 2151.878906 -164.949219 C 2329.621094 -221.128906 2547.980469 -254.589844 2759.160156 -286.941406 C 3120.03125 -342.238281 3460.878906 -394.46875 3509.679688 -551.738281 C 3536.351562 -637.699219 3475.148438 -749.101562 3322.589844 -892.289062 L 3325.160156 -895.03125 C 3478.871094 -750.75 3540.398438 -638.101562 3513.261719 -550.628906 C 3463.761719 -391.109375 3121.789062 -338.710938 2759.730469 -283.238281 C 2548.691406 -250.898438 2330.46875 -217.460938 2153.019531 -161.371094 C 1952.328125 -97.929688 1835.648438 -14.140625 1796.308594 94.789062 C 1743.96875 239.71875 1824.789062 429.960938 2043.378906 676.371094 C 2283.980469 947.578125 2374.371094 1133.421875 2319.710938 1244.5 C 2241.339844 1403.761719 1870.859375 1378.011719 1544 1355.261719 C 1268.960938 1336.128906 1009.171875 1318.070312 968.132812 1412.078125 C 941.152344 1473.890625 1009.539062 1580.429688 1177.210938 1737.808594 C 1381.21875 1929.300781 1464.789062 2084.410156 1432.679688 2212 C 1409.160156 2305.488281 1322.078125 2384.5 1166.449219 2453.550781 C 1029.410156 2514.359375 858.066406 2560.082031 692.363281 2604.289062 C 418.664062 2677.320312 160.144531 2746.289062 112.097656 2870.660156 C 95.695312 2913.121094 104.238281 2959.378906 138.214844 3012.070312 L 135.066406 3014.101562 "/>
<path fill-rule="nonzero" fill="rgb(84.083557%, 6.643677%, 57.240295%)" fill-opacity="1" d="M 117.972656 3066.558594 C 84.945312 3013.96875 77.007812 2967.179688 93.703125 2923.519531 C 142.9375 2794.761719 403.972656 2719.808594 680.335938 2640.460938 C 1020.75 2542.71875 1372.75 2441.648438 1424.28125 2229.699219 C 1455.011719 2103.300781 1374.699219 1951.960938 1178.78125 1767.019531 C 1014.511719 1611.949219 948.011719 1505.28125 975.492188 1440.910156 C 1017.738281 1341.96875 1278.511719 1355.140625 1554.589844 1369.078125 C 1880.039062 1385.53125 2248.890625 1404.148438 2327.03125 1242.808594 C 2380.949219 1131.488281 2294.390625 948.589844 2062.410156 683.660156 C 1850.699219 441.890625 1773.121094 252.71875 1825.230469 105.328125 C 1865.191406 -7.691406 1983.328125 -96.058594 2186.398438 -164.859375 C 2365.191406 -225.429688 2584.820312 -263.558594 2797.230469 -300.429688 C 3160.011719 -363.421875 3502.691406 -422.910156 3551.199219 -584.101562 C 3577.210938 -670.539062 3518.128906 -780.261719 3370.570312 -919.539062 L 3373.140625 -922.269531 C 3521.828125 -781.910156 3581.25 -670.941406 3554.789062 -583.019531 C 3505.609375 -419.609375 3161.828125 -359.929688 2797.871094 -296.738281 C 2585.609375 -259.890625 2366.109375 -221.78125 2187.601562 -161.308594 C 1985.691406 -92.910156 1868.308594 -5.28125 1828.761719 106.578125 C 1777.148438 252.578125 1854.488281 440.53125 2065.230469 681.191406 C 2298.308594 947.378906 2385.050781 1131.621094 2330.410156 1244.449219 C 2251.191406 1408.019531 1881 1389.328125 1554.398438 1372.828125 C 1279.671875 1358.960938 1020.160156 1345.839844 978.941406 1442.378906 C 952.152344 1505.140625 1018.359375 1610.429688 1181.351562 1764.289062 C 1378.339844 1950.230469 1459 2102.761719 1427.921875 2230.578125 C 1404.621094 2326.429688 1316.96875 2408.621094 1159.949219 2481.859375 C 1021.671875 2546.359375 848.675781 2596.03125 681.371094 2644.070312 C 405.933594 2723.148438 145.769531 2797.851562 97.203125 2924.859375 C 80.960938 2967.339844 88.792969 3013.039062 121.148438 3064.570312 L 117.972656 3066.558594 "/>
<path fill-rule="nonzero" fill="rgb(87.8479%, 27.798462%, 12.142944%)" fill-opacity="1" d="M 99.945312 3119.601562 C 68.519531 3068.171875 61.277344 3021.949219 77.800781 2978.320312 C 127.566406 2846.929688 390.34375 2766.160156 668.550781 2680.640625 C 837.417969 2628.730469 1012.03125 2575.050781 1151.351562 2506.929688 C 1308.78125 2429.949219 1396.378906 2345.339844 1419.179688 2248.269531 C 1448.878906 2121.761719 1371.429688 1973.019531 1182.398438 1793.539062 C 1022.761719 1641.960938 958.40625 1536.539062 985.652344 1471.25 C 1028.019531 1369.738281 1288.648438 1377.898438 1564.570312 1386.519531 C 1889.929688 1396.710938 2258.710938 1408.230469 2337.730469 1242.449219 C 2391.621094 1129.390625 2308.640625 948.050781 2084.050781 688.078125 C 1880.089844 451.988281 1805.910156 265.121094 1857.269531 116.78125 C 1897.421875 0.808594 2016.300781 -91.46875 2220.679688 -165.339844 C 2400.628906 -230.371094 2621.660156 -273.25 2835.421875 -314.730469 C 3200.328125 -385.53125 3545.011719 -452.398438 3593.210938 -617.558594 C 3618.539062 -704.390625 3561.53125 -812.421875 3418.910156 -947.851562 L 3421.480469 -950.570312 C 3565.230469 -814.078125 3622.578125 -704.808594 3596.808594 -616.511719 C 3547.96875 -449.160156 3202.199219 -382.070312 2836.128906 -311.039062 C 2622.511719 -269.601562 2401.628906 -226.738281 2221.949219 -161.808594 C 2018.710938 -88.351562 1900.570312 3.179688 1860.808594 118.011719 C 1809.929688 264.96875 1883.878906 450.640625 2086.890625 685.628906 C 2312.550781 946.851562 2395.710938 1129.519531 2341.121094 1244.058594 C 2261.050781 1412.058594 1890.949219 1400.480469 1564.449219 1390.269531 C 1289.859375 1381.679688 1030.488281 1373.558594 989.117188 1472.699219 C 962.535156 1536.378906 1026.609375 1640.429688 1184.980469 1790.820312 C 1375.058594 1971.300781 1452.859375 2121.210938 1422.828125 2249.121094 C 1399.761719 2347.359375 1311.5 2432.789062 1153 2510.300781 C 1013.421875 2578.550781 838.65625 2632.28125 669.652344 2684.21875 C 392.347656 2769.460938 130.421875 2849.980469 81.3125 2979.640625 C 65.21875 3022.128906 72.359375 3067.269531 103.140625 3117.648438 L 99.945312 3119.601562 "/>
<path fill-rule="nonzero" fill="rgb(93.257141%, 14.996338%, 14.422607%)" fill-opacity="1" d="M 80.914062 3173.21875 C 51.050781 3122.921875 44.492188 3077.28125 60.859375 3033.699219 C 111.191406 2899.691406 375.828125 2813 656.007812 2721.230469 C 826.683594 2665.320312 1003.171875 2607.511719 1143.878906 2535.550781 C 1302.898438 2454.21875 1391.179688 2366.320312 1413.738281 2266.828125 C 1442.421875 2140.351562 1367.761719 1994.21875 1185.480469 1820.089844 C 1030.421875 1671.960938 968.160156 1567.78125 995.144531 1501.621094 C 1037.621094 1397.46875 1298.199219 1400.558594 1574.128906 1403.828125 C 1899.621094 1407.699219 2268.539062 1412.078125 2348.441406 1241.710938 C 2402.269531 1126.949219 2322.800781 947.171875 2105.511719 692.070312 C 1909.171875 461.578125 1838.320312 277.039062 1888.910156 127.890625 C 1929.269531 8.910156 2048.929688 -87.351562 2254.75 -166.378906 C 2435.949219 -235.960938 2658.511719 -283.691406 2873.738281 -329.839844 C 3241 -408.601562 3587.890625 -482.980469 3635.738281 -652.148438 C 3660.390625 -739.28125 3605.398438 -845.609375 3467.621094 -977.230469 L 3470.210938 -979.941406 C 3609.078125 -847.28125 3664.410156 -739.71875 3639.351562 -651.128906 C 3590.878906 -479.789062 3242.921875 -405.171875 2874.53125 -326.179688 C 2659.441406 -280.050781 2437.019531 -232.359375 2256.089844 -162.878906 C 2051.378906 -84.28125 1932.441406 11.230469 1892.460938 129.101562 C 1842.328125 276.878906 1912.949219 460.238281 2108.359375 689.640625 C 2326.710938 945.96875 2406.351562 1127.078125 2351.839844 1243.308594 C 2270.910156 1415.859375 1900.71875 1411.480469 1574.089844 1407.578125 C 1299.5 1404.339844 1040.128906 1401.25 998.617188 1503.03125 C 972.28125 1567.609375 1034.261719 1670.429688 1188.070312 1817.378906 C 1371.378906 1992.5 1446.390625 2139.789062 1417.398438 2267.660156 C 1394.570312 2368.308594 1305.660156 2457.03125 1145.589844 2538.890625 C 1004.609375 2610.988281 827.984375 2668.839844 657.171875 2724.789062 C 377.875 2816.28125 114.066406 2902.691406 64.371094 3035.019531 C 48.429688 3077.46875 54.894531 3122.050781 84.136719 3171.300781 L 80.914062 3173.21875 "/>
<path fill-rule="nonzero" fill="rgb(82.223511%, 42.198181%, 73.152161%)" fill-opacity="1" d="M 60.925781 3227.441406 C 32.585938 3178.25 26.691406 3133.199219 42.902344 3089.710938 C 93.835938 2953.070312 360.445312 2860.390625 642.707031 2762.261719 C 815.292969 2702.269531 993.753906 2640.230469 1135.941406 2564.359375 C 1296.648438 2478.589844 1385.628906 2387.339844 1407.949219 2285.410156 C 1435.609375 2159.089844 1363.671875 2015.589844 1188.019531 1846.710938 C 1037.480469 1701.980469 977.28125 1599.050781 1003.96875 1532.039062 C 1046.53125 1425.179688 1307.28125 1423.160156 1583.339844 1421.03125 C 1909.140625 1418.519531 2278.398438 1415.671875 2359.199219 1240.589844 C 2412.921875 1124.171875 2336.910156 945.921875 2126.828125 695.660156 C 1937.980469 470.691406 1870.390625 288.5 1920.191406 138.671875 C 1960.761719 16.621094 2081.269531 -83.679688 2288.628906 -167.96875 C 2471.191406 -242.191406 2695.410156 -294.839844 2912.230469 -345.761719 C 3282.039062 -432.621094 3631.339844 -514.648438 3678.820312 -687.859375 C 3702.769531 -775.210938 3649.75 -879.828125 3516.75 -1007.710938 L 3519.351562 -1010.410156 C 3653.429688 -881.5 3706.78125 -775.660156 3682.441406 -686.871094 C 3634.371094 -511.5 3284.019531 -429.230469 2913.089844 -342.109375 C 2696.398438 -291.230469 2472.328125 -238.601562 2290.039062 -164.5 C 2083.761719 -80.640625 1963.949219 18.910156 1923.75 139.851562 C 1874.390625 288.339844 1941.761719 469.359375 2129.699219 693.25 C 2340.820312 944.738281 2417 1124.289062 2362.601562 1242.160156 C 2280.808594 1419.398438 1910.28125 1422.261719 1583.371094 1424.78125 C 1308.609375 1426.898438 1049.078125 1428.910156 1007.460938 1533.421875 C 981.394531 1598.859375 1041.308594 1700.460938 1190.621094 1844.011719 C 1367.289062 2013.871094 1439.578125 2158.511719 1411.609375 2286.210938 C 1389.039062 2389.289062 1299.441406 2481.351562 1137.699219 2567.667969 C 995.261719 2643.679688 816.660156 2705.761719 643.941406 2765.808594 C 362.535156 2863.628906 96.734375 2956.03125 46.414062 3091.019531 C 30.621094 3133.390625 36.429688 3177.410156 64.175781 3225.570312 L 60.925781 3227.441406 "/>
<path fill-rule="nonzero" fill="rgb(72.676086%, 6.47583%, 56.195068%)" fill-opacity="1" d="M 39.9375 3282.28125 C 13.085938 3234.171875 7.84375 3189.699219 23.90625 3146.328125 C 75.492188 3007.050781 344.195312 2908.28125 628.679688 2803.710938 C 803.273438 2739.53125 983.8125 2673.160156 1127.539062 2593.300781 C 1290.03125 2503 1379.75 2408.371094 1401.828125 2303.980469 C 1428.46875 2177.949219 1359.199219 2037.109375 1190.03125 1873.398438 C 1043.96875 1732.03125 985.785156 1630.339844 1012.148438 1562.511719 C 1054.78125 1452.890625 1315.808594 1445.71875 1592.171875 1438.128906 C 1918.460938 1429.179688 2288.289062 1419.03125 2370 1239.109375 C 2423.589844 1121.078125 2350.96875 944.359375 2148 698.859375 C 1966.488281 479.320312 1902.089844 299.488281 1951.101562 149.101562 C 1991.878906 23.949219 2113.308594 -80.46875 2322.320312 -170.121094 C 2506.351562 -249.058594 2732.339844 -306.738281 2950.890625 -362.519531 C 3323.460938 -457.621094 3675.371094 -547.429688 3722.449219 -724.730469 C 3745.679688 -812.210938 3694.601562 -915.101562 3566.28125 -1039.28125 L 3568.890625 -1041.980469 C 3698.269531 -916.761719 3749.691406 -812.671875 3726.078125 -723.769531 C 3678.429688 -544.351562 3325.488281 -454.261719 2951.820312 -358.890625 C 2733.410156 -303.140625 2507.558594 -245.5 2323.800781 -166.679688 C 2115.839844 -77.46875 1995.089844 26.199219 1954.660156 150.261719 C 1906.078125 299.339844 1970.269531 478 2150.890625 696.46875 C 2354.871094 943.191406 2427.660156 1121.199219 2373.410156 1240.660156 C 2290.738281 1422.710938 1919.671875 1432.898438 1592.28125 1441.878906 C 1317.191406 1449.429688 1057.371094 1456.570312 1015.648438 1563.871094 C 989.886719 1630.140625 1047.78125 1730.5 1192.640625 1870.699219 C 1362.808594 2035.390625 1432.429688 2177.371094 1405.5 2304.761719 C 1383.179688 2410.269531 1292.859375 2505.71875 1129.371094 2596.582031 C 985.382812 2676.578125 804.703125 2743 629.972656 2807.230469 C 346.324219 2911.488281 78.40625 3009.980469 27.421875 3147.628906 C 11.761719 3189.921875 16.925781 3233.359375 43.214844 3280.449219 L 39.9375 3282.28125 "/>
<path fill-rule="nonzero" fill="rgb(73.014832%, 18.408203%, 62.127686%)" fill-opacity="1" d="M 17.941406 3337.769531 C -7.117188 3291.378906 -11.863281 3246.238281 3.84375 3203.609375 C 56.121094 3061.699219 327.035156 2956.75 613.855469 2845.628906 C 790.566406 2777.171875 973.292969 2706.378906 1118.648438 2622.441406 C 1283.019531 2527.519531 1373.53125 2429.441406 1395.339844 2322.589844 C 1420.988281 2196.988281 1354.320312 2058.808594 1191.511719 1900.160156 C 1049.859375 1762.121094 993.660156 1661.671875 1019.691406 1593.078125 C 1062.351562 1480.609375 1323.820312 1468.238281 1600.640625 1455.140625 C 1927.621094 1439.660156 2298.21875 1422.121094 2380.839844 1237.230469 C 2434.28125 1117.640625 2364.988281 942.449219 2169.019531 701.640625 C 1994.730469 487.449219 1933.441406 310.011719 1981.648438 159.199219 C 2022.660156 30.898438 2145.058594 -77.710938 2355.851562 -172.820312 C 2541.441406 -256.570312 2769.339844 -319.371094 2989.738281 -380.109375 C 3365.269531 -483.601562 3719.980469 -581.351562 3766.648438 -762.738281 C 3789.160156 -850.25 3739.960938 -951.398438 3616.25 -1071.960938 L 3618.871094 -1074.640625 C 3743.628906 -953.058594 3793.148438 -850.738281 3770.269531 -761.808594 C 3723.070312 -578.308594 3367.339844 -480.28125 2990.730469 -376.488281 C 2770.46875 -315.789062 2542.71875 -253.03125 2357.390625 -169.398438 C 2147.628906 -74.75 2025.890625 33.109375 1985.21875 160.339844 C 1937.421875 309.859375 1998.5 486.140625 2171.929688 699.269531 C 2368.878906 941.28125 2438.328125 1117.75 2384.261719 1238.761719 C 2300.699219 1425.761719 1928.878906 1443.359375 1600.820312 1458.878906 C 1325.261719 1471.921875 1064.980469 1484.238281 1023.191406 1594.398438 C 997.75 1661.460938 1053.671875 1760.601562 1194.128906 1897.480469 C 1357.921875 2057.078125 1424.941406 2196.390625 1399.019531 2323.339844 C 1376.96875 2431.300781 1285.878906 2530.199219 1120.53125 2625.679688 C 974.917969 2709.769531 792.054688 2780.621094 615.210938 2849.128906 C 329.203125 2959.929688 59.054688 3064.589844 7.359375 3204.910156 C -8.171875 3247.070312 -3.628906 3289.941406 21.238281 3335.988281 L 17.941406 3337.769531 "/>
<path fill-rule="nonzero" fill="rgb(84.677124%, 30.908203%, 68.606567%)" fill-opacity="1" d="M -5.046875 3393.960938 C -28.726562 3348.570312 -32.835938 3304.03125 -17.261719 3261.570312 C 35.761719 3117.03125 308.996094 3005.800781 598.269531 2888.03125 C 777.199219 2815.191406 962.21875 2739.859375 1109.289062 2651.761719 C 1275.628906 2552.128906 1366.960938 2450.550781 1388.519531 2341.230469 C 1413.191406 2216.179688 1349.058594 2080.671875 1192.480469 1926.980469 C 1055.179688 1792.230469 1000.910156 1693.03125 1026.558594 1623.699219 C 1069.25 1508.351562 1331.300781 1490.71875 1608.730469 1472.050781 C 1936.589844 1449.988281 2308.191406 1424.980469 2391.738281 1234.96875 C 2444.988281 1113.878906 2378.96875 940.210938 2189.921875 704.019531 C 2022.691406 495.101562 1964.449219 320.078125 2011.859375 168.96875 C 2053.121094 37.480469 2176.558594 -75.378906 2389.238281 -176.058594 C 2576.488281 -264.699219 2806.421875 -332.730469 3028.78125 -398.519531 C 3407.5 -510.570312 3765.210938 -616.410156 3811.449219 -801.941406 C 3833.238281 -889.398438 3785.890625 -988.78125 3666.691406 -1105.769531 L 3669.320312 -1108.449219 C 3789.550781 -990.449219 3837.230469 -889.890625 3815.078125 -801.03125 C 3768.328125 -613.429688 3409.621094 -507.289062 3029.851562 -394.929688 C 2807.621094 -329.179688 2577.828125 -261.191406 2390.839844 -172.671875 C 2179.171875 -72.460938 2056.371094 39.660156 2015.441406 170.089844 C 1968.429688 319.921875 2026.460938 493.800781 2192.851562 701.679688 C 2382.859375 939.058594 2449.039062 1113.988281 2395.179688 1236.480469 C 2310.699219 1428.570312 1937.898438 1453.660156 1608.980469 1475.789062 C 1332.800781 1494.378906 1071.929688 1511.929688 1030.078125 1625 C 1005 1692.789062 1058.96875 1790.699219 1195.101562 1924.300781 C 1352.660156 2078.949219 1417.128906 2215.570312 1392.199219 2341.960938 C 1370.421875 2452.378906 1278.511719 2554.769531 1111.21875 2654.980469 C 963.898438 2743.230469 778.746094 2818.601562 599.683594 2891.5 C 311.199219 3008.949219 38.710938 3119.878906 -13.738281 3262.859375 C -29.152344 3304.871094 -25.222656 3347.191406 -1.722656 3392.21875 L -5.046875 3393.960938 "/>
<path fill-rule="nonzero" fill="rgb(81.933594%, 28.175354%, 61.62262%)" fill-opacity="1" d="M -29.074219 3450.828125 C -51.414062 3406.429688 -54.902344 3362.488281 -39.441406 3320.210938 C 14.386719 3173.050781 290.0625 3055.429688 581.921875 2930.910156 C 763.167969 2853.578125 950.585938 2773.621094 1099.449219 2681.28125 C 1267.828125 2576.839844 1360.039062 2471.730469 1381.339844 2359.949219 C 1405.03125 2235.578125 1343.390625 2102.769531 1192.878906 1953.949219 C 1059.890625 1822.449219 1007.519531 1724.488281 1032.78125 1654.480469 C 1075.480469 1536.160156 1338.261719 1513.191406 1616.480469 1488.878906 C 1945.390625 1460.128906 2318.191406 1427.539062 2402.699219 1232.300781 C 2455.730469 1109.761719 2392.929688 937.609375 2210.691406 706 C 2050.378906 502.238281 1995.109375 329.660156 2041.738281 178.378906 C 2083.261719 43.671875 2207.800781 -73.511719 2422.488281 -179.859375 C 2611.511719 -273.488281 2843.601562 -346.851562 3068.058594 -417.800781 C 3450.160156 -538.578125 3811.070312 -652.660156 3856.839844 -842.320312 C 3877.921875 -929.628906 3832.371094 -1027.238281 3717.601562 -1140.730469 L 3720.230469 -1143.390625 C 3836.019531 -1028.898438 3881.890625 -930.128906 3860.488281 -841.441406 C 3814.21875 -649.71875 3452.320312 -535.328125 3069.179688 -414.21875 C 2844.871094 -343.320312 2612.921875 -270 2424.160156 -176.5 C 2210.441406 -70.628906 2086.519531 45.820312 2045.320312 179.488281 C 1999.078125 329.5 2054.140625 500.960938 2213.640625 703.679688 C 2396.808594 936.46875 2459.78125 1109.871094 2406.140625 1233.789062 C 2320.75 1431.078125 1946.761719 1463.769531 1616.800781 1492.609375 C 1339.820312 1516.820312 1078.191406 1539.691406 1036.308594 1655.75 C 1011.601562 1724.238281 1063.671875 1820.910156 1195.519531 1951.28125 C 1346.980469 2101.050781 1408.96875 2234.960938 1385.019531 2360.640625 C 1363.519531 2473.519531 1270.75 2579.441406 1101.429688 2684.46875 C 952.320312 2776.960938 764.769531 2856.980469 583.394531 2934.359375 C 292.300781 3058.550781 17.347656 3175.859375 -35.917969 3321.488281 C -51.222656 3363.339844 -47.886719 3405.089844 -25.722656 3449.140625 L -29.074219 3450.828125 "/>
<path fill-rule="nonzero" fill="rgb(69.203186%, 29.608154%, 36.256409%)" fill-opacity="1" d="M -54.128906 3508.441406 C -75.171875 3465 -78.054688 3421.648438 -62.695312 3379.578125 C -8.007812 3229.789062 270.230469 3105.691406 564.800781 2974.308594 C 748.472656 2892.390625 938.394531 2807.679688 1089.140625 2711.011719 C 1259.671875 2601.660156 1352.789062 2492.960938 1373.820312 2378.71875 C 1396.558594 2255.171875 1337.339844 2125.070312 1192.78125 1981.011719 C 1064.03125 1852.710938 1013.519531 1756 1038.359375 1685.359375 C 1081.039062 1564.03125 1344.710938 1535.660156 1623.871094 1505.628906 C 1954.039062 1470.101562 2328.261719 1429.828125 2413.75 1229.21875 C 2466.539062 1105.308594 2406.878906 934.691406 2231.371094 707.601562 C 2077.808594 508.910156 2025.441406 338.769531 2071.289062 187.46875 C 2113.101562 49.511719 2238.820312 -72.058594 2455.628906 -184.191406 C 2646.519531 -282.910156 2880.910156 -361.710938 3107.570312 -437.921875 C 3493.269531 -567.601562 3857.578125 -690.089844 3902.890625 -883.890625 C 3923.238281 -970.960938 3879.449219 -1066.769531 3769.03125 -1176.820312 L 3771.671875 -1179.46875 C 3883.101562 -1068.441406 3927.210938 -971.46875 3906.539062 -883.039062 C 3860.75 -687.199219 3495.480469 -564.390625 3108.761719 -434.371094 C 2882.238281 -358.199219 2647.988281 -279.449219 2457.351562 -180.859375 C 2241.488281 -69.21875 2116.378906 51.621094 2074.878906 188.558594 C 2029.410156 338.621094 2081.570312 507.648438 2234.339844 705.308594 C 2410.761719 933.570312 2470.570312 1105.421875 2417.191406 1230.691406 C 2330.851562 1433.328125 1955.460938 1473.71875 1624.269531 1509.351562 C 1346.320312 1539.261719 1083.789062 1567.5 1041.898438 1686.609375 C 1017.578125 1755.738281 1067.800781 1851.179688 1195.421875 1978.351562 C 1340.929688 2123.351562 1400.488281 2254.539062 1377.5 2379.398438 C 1356.28125 2494.71875 1262.609375 2604.21875 1091.160156 2714.171875 C 940.179688 2810.988281 750.125 2895.761719 566.332031 2977.730469 C 272.503906 3108.78125 -5.03125 3232.570312 -59.171875 3380.859375 C -74.382812 3422.519531 -71.628906 3463.71875 -50.753906 3506.808594 L -54.128906 3508.441406 "/>
<path fill-rule="nonzero" fill="rgb(59.971619%, 26.335144%, 33.969116%)" fill-opacity="1" d="M -80.222656 3566.78125 C -125.171875 3470.210938 -82.171875 3378.738281 55.097656 3278.890625 C 176.707031 3190.429688 356.515625 3106.78125 546.882812 3018.21875 C 733.074219 2931.609375 925.609375 2842.039062 1078.320312 2740.960938 C 1251.089844 2626.601562 1345.171875 2514.289062 1365.941406 2397.589844 C 1387.761719 2274.96875 1330.921875 2147.601562 1192.148438 2008.191406 C 1067.578125 1883.050781 1018.890625 1787.601562 1043.308594 1716.390625 C 1085.949219 1591.980469 1350.660156 1558.128906 1630.910156 1522.300781 C 1962.519531 1479.898438 2338.371094 1431.839844 2424.851562 1225.730469 C 2477.398438 1100.519531 2420.828125 931.429688 2251.921875 708.78125 C 2104.96875 515.070312 2055.449219 347.410156 2100.539062 196.199219 C 2142.648438 54.96875 2269.609375 -71.058594 2488.671875 -189.078125 C 2681.539062 -292.980469 2918.328125 -377.339844 3147.328125 -458.921875 C 3536.839844 -597.671875 3904.730469 -728.738281 3949.570312 -926.679688 C 3969.210938 -1013.398438 3927.140625 -1107.421875 3820.96875 -1214.078125 L 3823.621094 -1216.730469 C 3930.78125 -1109.078125 3973.171875 -1013.929688 3953.21875 -925.851562 C 3907.929688 -725.890625 3539.089844 -594.5 3148.589844 -455.378906 C 2919.730469 -373.851562 2683.070312 -289.539062 2490.449219 -185.769531 C 2272.308594 -68.25 2145.949219 57.039062 2104.128906 197.269531 C 2059.410156 347.25 2108.738281 513.820312 2254.910156 706.511719 C 2424.699219 930.320312 2481.421875 1100.628906 2428.320312 1227.191406 C 2340.988281 1435.28125 1964 1483.488281 1631.378906 1526.019531 C 1352.328125 1561.699219 1088.75 1595.410156 1046.851562 1717.609375 C 1022.949219 1787.328125 1071.351562 1881.519531 1194.800781 2005.550781 C 1334.5 2145.878906 1391.679688 2274.339844 1369.628906 2398.25 C 1348.671875 2516.011719 1254.058594 2629.140625 1080.390625 2744.089844 C 927.445312 2845.320312 734.785156 2934.949219 548.464844 3021.628906 C 358.265625 3110.101562 178.617188 3193.679688 57.304688 3281.921875 C -78.261719 3380.53125 -120.882812 3470.539062 -76.828125 3565.199219 L -80.222656 3566.78125 "/>
<path fill-rule="nonzero" fill="rgb(71.913147%, 39.66217%, 72.650146%)" fill-opacity="1" d="M -107.351562 3625.898438 C -150.242188 3529.800781 -105.617188 3437.078125 33.078125 3334.128906 C 155.972656 3242.910156 336.769531 3155.359375 528.179688 3062.679688 C 717.003906 2971.25 912.253906 2876.710938 1067 2771.140625 C 1242.101562 2651.679688 1337.191406 2535.699219 1357.699219 2416.570312 C 1378.628906 2295 1324.089844 2170.351562 1190.96875 2035.5 C 1070.519531 1913.488281 1023.621094 1819.300781 1047.578125 1747.570312 C 1090.179688 1620.03125 1356.070312 1580.628906 1637.570312 1538.921875 C 1970.820312 1489.53125 2348.53125 1433.550781 2436.050781 1221.828125 C 2488.320312 1095.398438 2434.78125 927.828125 2272.378906 709.570312 C 2131.878906 520.738281 2085.140625 355.558594 2129.480469 204.589844 C 2171.929688 60.050781 2300.199219 -70.5 2521.628906 -194.511719 C 2716.578125 -303.699219 2955.910156 -393.71875 3187.359375 -480.78125 C 3580.871094 -628.800781 3952.558594 -768.621094 3996.910156 -970.691406 C 4015.851562 -1056.988281 3975.460938 -1149.179688 3873.441406 -1252.53125 L 3876.109375 -1255.171875 C 3979.089844 -1150.839844 4019.800781 -1057.519531 4000.570312 -969.878906 C 3955.789062 -765.820312 3583.171875 -625.660156 3188.679688 -477.28125 C 2957.359375 -390.261719 2718.160156 -300.289062 2523.460938 -191.238281 C 2302.929688 -67.730469 2175.230469 62.089844 2133.078125 205.640625 C 2089.089844 355.410156 2135.640625 519.511719 2275.390625 707.328125 C 2438.648438 926.75 2492.328125 1095.511719 2439.519531 1223.269531 C 2351.179688 1436.949219 1972.359375 1493.101562 1638.121094 1542.628906 C 1357.789062 1584.171875 1093.011719 1623.410156 1051.140625 1748.761719 C 1027.671875 1819.019531 1074.28125 1911.949219 1193.640625 2032.871094 C 1327.671875 2168.640625 1382.539062 2294.359375 1361.398438 2417.199219 C 1340.710938 2537.390625 1245.101562 2654.171875 1069.109375 2774.238281 C 914.136719 2879.96875 718.761719 2974.570312 529.8125 3066.050781 C 338.566406 3158.660156 157.925781 3246.128906 35.3125 3337.140625 C -101.734375 3438.878906 -145.980469 3530.140625 -103.929688 3624.378906 L -107.351562 3625.898438 "/>
<path fill-rule="nonzero" fill="rgb(53.756714%, 54.159546%, 24.308777%)" fill-opacity="1" d="M -135.53125 3685.800781 C -176.378906 3590.128906 -130.113281 3496.148438 10.058594 3390.050781 C 134.285156 3296.019531 316.140625 3204.558594 508.671875 3107.710938 C 700.226562 3011.371094 898.296875 2911.738281 1055.171875 2801.589844 C 1232.710938 2676.921875 1328.859375 2557.238281 1349.109375 2435.691406 C 1369.171875 2315.28125 1316.890625 2193.371094 1189.289062 2062.96875 C 1072.890625 1944.019531 1027.730469 1851.109375 1051.230469 1778.929688 C 1093.761719 1648.210938 1360.988281 1603.160156 1643.921875 1555.46875 C 1978.980469 1498.980469 2358.761719 1434.96875 2447.351562 1217.511719 C 2499.328125 1089.921875 2448.761719 923.910156 2292.761719 709.96875 C 2158.550781 525.921875 2114.519531 363.238281 2158.128906 212.621094 C 2200.949219 64.769531 2330.609375 -70.359375 2554.53125 -200.488281 C 2751.660156 -315.050781 2993.660156 -410.859375 3227.691406 -503.519531 C 3625.421875 -660.988281 4001.089844 -809.730469 4044.960938 -1015.910156 C 4063.210938 -1101.691406 4024.460938 -1192.050781 3926.5 -1292.160156 L 3929.179688 -1294.78125 C 4028.089844 -1193.710938 4067.160156 -1102.238281 4048.621094 -1015.128906 C 4004.339844 -806.988281 3627.761719 -657.890625 3229.070312 -500.03125 C 2995.171875 -407.421875 2753.300781 -311.671875 2556.410156 -197.238281 C 2333.371094 -67.628906 2204.269531 66.78125 2161.730469 213.671875 C 2118.460938 363.089844 2162.308594 524.710938 2295.789062 707.761719 C 2452.621094 922.828125 2503.328125 1090.039062 2450.828125 1218.921875 C 2361.449219 1438.320312 1980.570312 1502.519531 1644.539062 1559.171875 C 1362.769531 1606.671875 1096.628906 1651.53125 1054.789062 1780.078125 C 1031.769531 1850.820312 1076.640625 1942.5 1191.96875 2060.339844 C 1320.46875 2191.660156 1373.078125 2314.640625 1352.808594 2436.300781 C 1332.378906 2558.898438 1235.730469 2679.378906 1057.320312 2804.660156 C 900.226562 2914.96875 702.027344 3014.660156 510.355469 3111.058594 C 317.984375 3207.820312 136.277344 3299.21875 12.320312 3393.039062 C -126.257812 3497.941406 -172.144531 3590.488281 -132.085938 3684.328125 L -135.53125 3685.800781 "/>
<path fill-rule="nonzero" fill="rgb(49.858093%, 8.903503%, 10.552979%)" fill-opacity="1" d="M -164.800781 3746.519531 C -203.621094 3651.238281 -155.699219 3555.949219 -13.984375 3446.660156 C 111.632812 3349.78125 294.617188 3254.351562 488.351562 3153.308594 C 682.734375 3051.921875 883.734375 2947.089844 1042.820312 2832.28125 C 1222.878906 2702.308594 1320.140625 2578.890625 1340.140625 2454.941406 C 1359.371094 2335.820312 1309.289062 2216.628906 1187.039062 2090.558594 C 1074.648438 1974.660156 1031.199219 1883.039062 1054.210938 1810.449219 C 1096.671875 1676.511719 1365.390625 1625.730469 1649.890625 1571.96875 C 1986.960938 1508.269531 2369.011719 1436.070312 2458.71875 1212.761719 C 2510.398438 1084.109375 2462.738281 919.640625 2313.019531 709.960938 C 2184.960938 530.601562 2143.570312 370.421875 2186.488281 220.289062 C 2229.710938 69.101562 2360.839844 -70.679688 2587.359375 -207.019531 C 2786.789062 -327.058594 3031.578125 -428.78125 3268.308594 -527.148438 C 3670.460938 -694.269531 4050.320312 -852.121094 4093.699219 -1062.390625 C 4111.269531 -1147.558594 4074.121094 -1236.089844 3980.121094 -1333.011719 L 3982.808594 -1335.628906 C 4077.738281 -1237.738281 4115.210938 -1148.121094 4097.371094 -1061.628906 C 4053.589844 -849.421875 3672.851562 -691.199219 3269.75 -523.691406 C 3033.140625 -425.371094 2788.488281 -323.699219 2589.300781 -203.808594 C 2363.621094 -67.980469 2233.050781 71.078125 2190.101562 221.320312 C 2147.511719 370.289062 2188.71875 529.410156 2316.070312 707.78125 C 2466.601562 918.589844 2514.390625 1084.230469 2462.199219 1214.160156 C 2371.71875 1439.378906 1988.601562 1511.78125 1650.578125 1575.648438 C 1367.21875 1629.199219 1099.570312 1679.78125 1057.78125 1811.589844 C 1035.230469 1882.730469 1078.390625 1973.128906 1189.730469 2087.949219 C 1312.859375 2214.921875 1363.269531 2335.160156 1343.851562 2455.539062 C 1323.671875 2580.519531 1225.929688 2704.738281 1045.011719 2835.320312 C 885.710938 2950.289062 684.585938 3055.191406 490.082031 3156.628906 C 296.503906 3257.589844 113.660156 3352.949219 -11.695312 3449.628906 C -151.863281 3557.730469 -199.414062 3651.621094 -161.332031 3745.101562 L -164.800781 3746.519531 "/>
<path fill-rule="nonzero" fill="rgb(71.211243%, 27.888489%, 40.997314%)" fill-opacity="1" d="M -195.164062 3808.089844 C -231.96875 3713.160156 -182.367188 3616.53125 -39.054688 3504.011719 C 88.003906 3404.238281 272.195312 3304.800781 467.210938 3199.519531 C 664.535156 3092.988281 868.578125 2982.828125 1029.960938 2863.261719 C 1212.648438 2727.898438 1311.070312 2600.691406 1330.828125 2474.378906 C 1349.25 2356.640625 1301.320312 2240.191406 1184.28125 2118.359375 C 1075.820312 2005.449219 1034.039062 1915.121094 1056.558594 1842.199219 C 1098.929688 1704.980469 1369.300781 1648.371094 1655.53125 1588.441406 C 1994.808594 1517.398438 2379.351562 1436.878906 2470.21875 1207.601562 C 2521.589844 1077.96875 2476.789062 915.058594 2333.25 709.570312 C 2211.148438 534.769531 2172.339844 377.109375 2214.589844 227.570312 C 2258.261719 73.039062 2390.921875 -71.441406 2620.179688 -214.121094 C 2822 -339.730469 3069.699219 -447.488281 3309.238281 -551.691406 C 3716.03125 -728.660156 4100.25 -895.808594 4143.160156 -1110.128906 C 4160.070312 -1194.609375 4124.480469 -1281.289062 4034.351562 -1375.101562 L 4037.058594 -1377.699219 C 4128.101562 -1282.929688 4164 -1195.171875 4146.839844 -1109.390625 C 4103.550781 -893.148438 3718.449219 -725.621094 3310.738281 -548.261719 C 3071.320312 -444.101562 2823.75 -336.410156 2622.160156 -210.941406 C 2393.738281 -68.769531 2261.601562 75 2218.199219 228.589844 C 2176.269531 376.980469 2214.910156 533.609375 2336.320312 707.421875 C 2480.640625 914.03125 2525.578125 1078.089844 2473.710938 1208.96875 C 2382.089844 1440.140625 1996.5 1520.871094 1656.300781 1592.101562 C 1371.179688 1651.808594 1101.859375 1708.199219 1060.140625 1843.308594 C 1038.058594 1914.800781 1079.550781 2003.929688 1186.988281 2115.761719 C 1304.890625 2238.488281 1353.148438 2355.980469 1334.539062 2474.960938 C 1314.609375 2602.289062 1215.71875 2730.289062 1032.191406 2866.269531 C 870.59375 2986 666.429688 3096.230469 468.988281 3202.820312 C 274.125 3308.019531 90.066406 3407.390625 -36.742188 3506.960938 C -178.558594 3618.320312 -227.789062 3713.570312 -191.671875 3806.730469 L -195.164062 3808.089844 "/>
<path fill-rule="nonzero" fill="rgb(64.855957%, 34.939575%, 57.894897%)" fill-opacity="1" d="M -226.613281 3870.519531 C -261.414062 3775.910156 -210.105469 3677.910156 -65.148438 3562.101562 C 63.402344 3459.410156 248.871094 3355.910156 445.234375 3246.351562 C 645.601562 3134.539062 852.792969 3018.929688 1016.558594 2894.519531 C 1201.980469 2753.648438 1301.609375 2622.640625 1321.140625 2493.980469 C 1338.800781 2377.71875 1292.949219 2263.988281 1180.988281 2146.289062 C 1076.378906 2036.339844 1036.238281 1947.308594 1058.25 1874.140625 C 1100.519531 1733.609375 1372.679688 1671.070312 1660.808594 1604.859375 C 2002.46875 1526.339844 2389.730469 1437.351562 2481.820312 1201.980469 C 2532.890625 1071.460938 2490.878906 910.121094 2353.398438 708.738281 C 2237.121094 538.421875 2200.828125 383.28125 2242.449219 234.449219 C 2286.589844 76.570312 2420.878906 -72.671875 2652.980469 -221.800781 C 2857.308594 -353.078125 3108.039062 -466.988281 3350.511719 -577.148438 C 3762.128906 -764.160156 4150.929688 -940.800781 4193.371094 -1159.140625 C 4209.640625 -1242.851562 4175.570312 -1327.679688 4089.210938 -1418.460938 L 4091.921875 -1421.039062 C 4179.179688 -1329.320312 4213.570312 -1243.410156 4197.050781 -1158.421875 C 4154.25 -938.179688 3764.589844 -761.160156 3352.058594 -573.738281 C 3109.710938 -463.628906 2859.109375 -349.78125 2655.011719 -218.640625 C 2423.71875 -70.039062 2289.949219 78.5 2246.050781 235.460938 C 2204.761719 383.160156 2240.878906 537.28125 2356.5 706.628906 C 2494.730469 909.109375 2536.859375 1071.578125 2485.308594 1203.339844 C 2392.5 1440.558594 2004.21875 1529.789062 1661.648438 1608.511719 C 1374.609375 1674.46875 1103.488281 1736.78125 1061.839844 1875.21875 C 1040.25 1946.988281 1080.109375 2034.808594 1183.699219 2143.710938 C 1296.519531 2262.300781 1342.691406 2377.058594 1324.851562 2494.539062 C 1305.160156 2624.210938 1205.058594 2756.019531 1018.828125 2897.5 C 854.851562 3022.078125 647.542969 3137.75 447.0625 3249.621094 C 250.839844 3359.109375 65.496094 3462.53125 -62.804688 3565.03125 C -206.328125 3679.679688 -257.261719 3776.339844 -223.09375 3869.21875 L -226.613281 3870.519531 "/>
<path fill-rule="nonzero" fill="rgb(91.020203%, 11.206055%, 14.291382%)" fill-opacity="1" d="M -259.171875 3933.839844 C -291.988281 3839.511719 -238.953125 3740.078125 -92.277344 3620.949219 C 37.8125 3515.289062 224.640625 3407.710938 422.4375 3293.800781 C 625.949219 3176.609375 836.390625 3055.429688 1002.628906 2926.089844 C 1190.859375 2779.628906 1291.761719 2644.78125 1311.078125 2513.820312 C 1328.011719 2399.140625 1284.191406 2288.128906 1177.148438 2174.449219 C 1076.339844 2067.398438 1037.789062 1979.691406 1059.300781 1906.320312 C 1101.480469 1762.441406 1375.578125 1693.851562 1665.78125 1621.25 C 2010.011719 1535.121094 2400.179688 1437.5 2493.539062 1195.941406 C 2544.300781 1064.628906 2505.03125 904.878906 2373.5 707.558594 C 2262.871094 541.601562 2229.019531 388.96875 2270.039062 240.960938 C 2314.71875 79.71875 2450.710938 -74.339844 2685.789062 -230.03125 C 2892.730469 -367.089844 3146.621094 -487.28125 3392.140625 -603.519531 C 3808.808594 -800.78125 4202.378906 -987.101562 4244.359375 -1209.410156 C 4260.011719 -1292.28125 4227.421875 -1375.25 4144.730469 -1463.058594 L 4147.460938 -1465.628906 C 4231.03125 -1376.890625 4263.929688 -1292.851562 4248.050781 -1208.71875 C 4205.710938 -984.53125 3811.308594 -797.808594 3393.75 -600.128906 C 3148.339844 -483.949219 2894.578125 -363.808594 2687.859375 -226.898438 C 2453.570312 -71.730469 2318.078125 81.628906 2273.648438 241.960938 C 2232.941406 388.859375 2266.628906 540.480469 2376.621094 705.480469 C 2508.878906 903.890625 2548.269531 1064.761719 2497.050781 1197.300781 C 2402.980469 1440.660156 2011.808594 1538.539062 1666.691406 1624.878906 C 1377.558594 1697.21875 1104.46875 1765.550781 1062.898438 1907.378906 C 1041.800781 1979.359375 1080.058594 2065.878906 1179.878906 2171.878906 C 1287.761719 2286.449219 1331.890625 2398.480469 1314.789062 2514.371094 C 1295.320312 2646.320312 1193.96875 2781.96875 1004.929688 2929.050781 C 838.488281 3058.550781 627.933594 3179.800781 424.3125 3297.050781 C 226.644531 3410.878906 39.945312 3518.390625 -89.914062 3623.859375 C -235.199219 3741.859375 -287.855469 3839.96875 -255.632812 3932.609375 L -259.171875 3933.839844 "/>
<path fill-rule="nonzero" fill="rgb(68.367004%, 27.120972%, 12.185669%)" fill-opacity="1" d="M -292.867188 3998.078125 C -323.710938 3903.980469 -268.9375 3803.101562 -120.484375 3680.589844 C 11.203125 3571.921875 199.464844 3460.199219 398.777344 3341.921875 C 605.539062 3219.21875 819.339844 3092.339844 988.136719 2957.988281 C 1179.300781 2805.828125 1281.519531 2667.101562 1300.640625 2533.878906 C 1316.871094 2420.851562 1275.039062 2312.550781 1172.769531 2202.78125 C 1075.699219 2098.589844 1038.710938 2012.21875 1059.710938 1938.730469 C 1101.769531 1791.460938 1377.96875 1716.730469 1670.390625 1637.621094 C 2017.378906 1543.738281 2410.671875 1437.328125 2505.390625 1189.488281 C 2555.839844 1057.460938 2519.25 899.289062 2393.539062 705.941406 C 2288.390625 544.238281 2256.941406 394.121094 2297.390625 247.019531 C 2342.648438 82.449219 2480.429688 -76.480469 2718.609375 -238.851562 C 2928.28125 -381.78125 3185.429688 -508.378906 3434.121094 -630.820312 C 3856.050781 -838.539062 4254.589844 -1034.75 4296.128906 -1260.980469 C 4311.179688 -1342.921875 4280.03125 -1424.039062 4200.910156 -1508.949219 L 4203.660156 -1511.511719 C 4283.640625 -1425.660156 4315.101562 -1343.488281 4299.820312 -1260.300781 C 4257.941406 -1032.21875 3858.578125 -835.609375 3435.78125 -627.460938 C 3187.210938 -505.078125 2930.171875 -378.53125 2720.71875 -235.75 C 2483.320312 -73.910156 2346.03125 84.339844 2301.011719 248.019531 C 2260.851562 394.019531 2292.148438 543.140625 2396.679688 703.898438 C 2523.101562 898.328125 2559.800781 1057.601562 2508.890625 1190.828125 C 2413.5 1440.449219 2019.21875 1547.121094 1671.371094 1641.238281 C 1380 1720.070312 1104.800781 1794.53125 1063.308594 1939.761719 C 1042.710938 2011.878906 1079.410156 2097.078125 1175.511719 2200.21875 C 1277.179688 2309.339844 1320.53125 2421.78125 1304.359375 2534.410156 C 1285.089844 2668.628906 1182.421875 2808.140625 990.472656 2960.921875 C 821.476562 3095.429688 607.5625 3222.378906 400.691406 3345.140625 C 11.660156 3576.011719 -355.796875 3794.070312 -289.300781 3996.910156 L -292.867188 3998.078125 "/>
<path fill-rule="nonzero" fill="rgb(62.579346%, 56.465149%, 44.975281%)" fill-opacity="1" d="M -327.675781 4063.230469 C -356.558594 3969.351562 -300.023438 3866.96875 -149.742188 3741.039062 C -16.410156 3629.320312 173.351562 3513.421875 374.257812 3390.71875 C 584.378906 3262.378906 801.648438 3129.679688 973.097656 2990.21875 C 1167.289062 2832.269531 1270.898438 2689.640625 1289.839844 2554.199219 C 1305.398438 2442.910156 1265.5 2337.300781 1167.851562 2231.339844 C 1074.429688 2129.96875 1038.96875 2044.929688 1059.460938 1971.378906 C 1101.421875 1820.691406 1379.871094 1739.710938 1674.671875 1653.960938 C 2024.589844 1552.179688 2421.21875 1436.820312 2517.339844 1182.609375 C 2567.488281 1049.96875 2533.53125 893.398438 2413.511719 703.949219 C 2315.070312 548.570312 2285.128906 396.75 2324.511719 252.679688 C 2370.410156 84.769531 2510.070312 -79.089844 2751.46875 -248.261719 C 2963.960938 -397.160156 3224.519531 -530.308594 3476.5 -659.078125 C 3903.898438 -877.480469 4307.589844 -1083.769531 4348.730469 -1313.859375 C 4363.199219 -1394.808594 4333.460938 -1474.058594 4257.820312 -1556.148438 L 4260.578125 -1558.691406 C 4337.070312 -1475.679688 4367.109375 -1395.378906 4352.421875 -1313.199219 C 4310.960938 -1081.28125 3906.460938 -874.578125 3478.210938 -655.738281 C 3226.339844 -527.03125 2965.898438 -393.941406 2753.621094 -245.191406 C 2512.960938 -76.550781 2373.78125 86.628906 2328.121094 253.671875 C 2288.480469 398.691406 2317.449219 545.320312 2416.671875 701.949219 C 2537.371094 892.449219 2571.449219 1050.109375 2520.839844 1183.941406 C 2424.058594 1439.898438 2026.480469 1555.539062 1675.710938 1657.558594 C 1381.941406 1743.011719 1104.46875 1823.710938 1063.070312 1972.378906 C 1042.960938 2044.578125 1078.140625 2128.460938 1170.609375 2228.800781 C 1267.699219 2334.160156 1309.058594 2443.808594 1293.550781 2554.71875 C 1274.46875 2691.140625 1170.421875 2834.550781 975.464844 2993.128906 C 803.820312 3132.75 586.4375 3265.519531 376.210938 3393.921875 C -15.960938 3633.441406 -386.382812 3859.679688 -324.09375 4062.128906 L -327.675781 4063.230469 "/>
</svg>
